<?xml version="1.0" standalone="no"?>
<!DOCTYPE svg PUBLIC "-//W3C//DTD SVG 20010904//EN"
 "http://www.w3.org/TR/2001/REC-SVG-20010904/DTD/svg10.dtd">
<svg version="1.0" xmlns="http://www.w3.org/2000/svg"
 width="1024.000000pt" height="1046.000000pt" viewBox="0 0 1024.000000 1046.000000"
 preserveAspectRatio="xMidYMid meet">

<g transform="translate(0.000000,1046.000000) scale(0.100000,-0.100000)"
fill="#000000" stroke="none">
<path d="M5119 6956 c-145 -27 -253 -109 -342 -259 -30 -50 -130 -231 -222
-402 -92 -170 -171 -314 -175 -320 -11 -14 -161 -290 -273 -501 -53 -100 -130
-241 -172 -313 -41 -73 -75 -134 -75 -136 0 -2 -19 -36 -42 -77 -161 -283
-205 -382 -214 -481 -5 -64 -3 -81 24 -157 40 -112 64 -157 109 -203 70 -72
134 -93 458 -152 50 -9 135 -25 190 -35 55 -11 174 -31 265 -44 91 -14 203
-32 250 -41 47 -9 114 -20 150 -25 36 -4 114 -15 174 -24 286 -42 454 0 601
149 75 76 148 202 218 375 19 47 44 108 57 135 66 146 115 262 125 295 4 14
32 81 63 150 30 69 72 166 92 215 57 136 235 563 297 710 66 155 101 249 155
410 37 112 40 125 33 195 -4 53 -16 97 -40 149 -86 192 -173 245 -450 277 -71
8 -161 19 -200 24 -91 13 -302 37 -485 55 -80 8 -188 19 -240 24 -169 17 -264
19 -331 7z m414 -56 c40 -6 113 -14 162 -19 50 -5 162 -19 250 -30 88 -11 206
-25 263 -32 56 -6 102 -14 102 -16 0 -6 -136 3 -250 16 -41 5 -142 16 -225 25
-82 9 -193 21 -245 26 -189 21 -396 30 -461 19 -77 -12 -149 -50 -205 -106
-22 -22 -76 -103 -119 -180 -42 -76 -98 -174 -123 -218 -26 -44 -78 -141 -117
-215 -85 -161 -121 -225 -190 -345 -55 -95 -164 -295 -248 -455 -28 -52 -77
-142 -110 -200 -34 -58 -85 -152 -115 -210 -30 -58 -64 -117 -74 -133 -11 -15
-49 -85 -84 -155 -35 -70 -64 -117 -64 -105 0 19 87 198 162 333 14 25 42 77
63 115 21 39 41 75 45 80 4 6 27 46 50 89 23 44 48 89 55 100 7 12 27 48 45
81 18 33 57 105 88 160 30 55 74 136 97 180 23 44 62 116 87 160 25 44 56 98
68 120 13 22 52 96 88 165 35 69 86 163 112 210 26 47 63 114 82 150 89 166
127 227 172 277 58 64 86 80 186 110 68 21 89 22 228 18 84 -3 185 -10 225
-15z m950 -127 c-7 -2 -19 -2 -25 0 -7 3 -2 5 12 5 14 0 19 -2 13 -5z m-303
-69 c0 -8 -5 -12 -10 -9 -6 4 -8 11 -5 16 9 14 15 11 15 -7z m-1025 -75 c61
-5 142 -14 180 -20 39 -5 165 -20 280 -34 116 -13 237 -29 270 -35 33 -6 134
-20 225 -30 180 -22 256 -33 370 -52 l75 -13 -1 -40 c-1 -26 -31 -108 -88
-240 -47 -111 -86 -206 -86 -213 0 -7 -4 -20 -9 -30 -5 -9 -16 -33 -24 -52 -8
-19 -27 -62 -42 -95 -37 -82 -45 -101 -110 -250 -31 -71 -64 -146 -72 -165
-52 -118 -102 -212 -102 -192 -1 12 6 39 14 59 18 42 18 43 5 43 -5 0 -10 -6
-10 -14 0 -7 -13 -27 -30 -44 -16 -18 -30 -41 -30 -51 0 -11 -10 -39 -23 -63
-12 -24 -29 -62 -36 -86 -8 -23 -20 -47 -28 -53 -19 -16 -18 -12 27 97 21 55
42 118 46 141 6 37 3 45 -20 66 -14 13 -43 27 -64 31 -20 3 -59 11 -87 16
-112 23 -192 33 -215 27 -47 -12 -87 -62 -149 -182 -70 -137 -77 -181 -38
-227 21 -24 36 -29 108 -38 110 -13 152 -23 156 -36 4 -13 -65 -26 -142 -28
-30 -1 -54 -7 -61 -15 -6 -8 -28 -16 -49 -17 -41 -4 -62 -14 -27 -14 11 0 24
-4 27 -10 3 -5 -2 -10 -12 -10 -35 0 -228 -54 -242 -68 -13 -13 -17 -11 -32 9
-39 53 -50 61 -75 55 -14 -4 -24 -2 -24 4 0 5 -5 10 -11 10 -6 0 -9 -7 -6 -15
10 -25 -10 -25 -37 0 -19 18 -38 25 -67 25 -21 0 -39 -4 -39 -10 0 -5 -8 -10
-19 -10 -12 0 -20 -9 -23 -25 -6 -27 6 -35 15 -10 8 20 68 34 90 21 9 -6 17
-21 17 -33 0 -16 4 -21 15 -17 12 5 15 -3 15 -41 0 -40 -2 -46 -14 -36 -10 8
-16 9 -21 1 -3 -5 -32 -10 -63 -11 -50 0 -54 -2 -29 -11 15 -5 27 -14 27 -20
0 -11 -35 -8 -160 12 -65 11 -129 21 -270 39 -41 6 -95 15 -120 20 -25 5 -76
14 -115 20 -182 27 -271 43 -279 51 -6 6 -6 18 1 32 46 100 80 169 100 201 37
60 124 218 161 292 8 17 32 59 52 95 21 36 59 106 85 155 27 50 75 140 108
200 33 61 94 175 135 255 41 80 90 171 108 203 19 32 34 60 34 62 0 2 13 26
29 53 42 72 84 147 125 227 68 133 94 158 156 150 19 -3 85 -10 145 -16z
m1472 -511 c-3 -8 -6 -5 -6 6 -1 11 2 17 5 13 3 -3 4 -12 1 -19z m-20 -50 c-3
-7 -5 -2 -5 12 0 14 2 19 5 13 2 -7 2 -19 0 -25z m-24 -58 c-3 -12 -8 -19 -11
-16 -5 6 5 36 12 36 2 0 2 -9 -1 -20z m-20 -50 c-3 -12 -8 -19 -11 -16 -5 6 5
36 12 36 2 0 2 -9 -1 -20z m-79 -187 c-4 -16 -11 -32 -15 -37 -5 -6 -9 -16 -9
-23 0 -7 -11 -36 -25 -65 -14 -28 -25 -55 -25 -60 0 -13 -73 -168 -77 -164 -2
2 1 16 8 32 6 16 15 38 19 49 19 51 46 116 76 180 17 39 34 80 38 93 10 31 18
27 10 -5z m-169 -409 c-9 -21 -23 -53 -31 -71 -8 -17 -14 -34 -14 -37 0 -6
-19 -51 -61 -141 -10 -22 -18 -33 -19 -24 0 9 14 48 31 85 31 70 34 76 64 149
26 62 38 85 42 82 2 -2 -4 -21 -12 -43z m-610 -70 c79 -8 187 -33 202 -46 27
-22 18 -50 -67 -233 -15 -33 -39 -71 -53 -83 -29 -27 -66 -27 -242 2 -131 21
-145 28 -145 66 0 41 62 182 106 243 39 54 65 68 109 62 17 -2 57 -7 90 -11z
m289 -209 c-4 -8 -10 -12 -15 -9 -14 8 -10 24 6 24 9 0 12 -6 9 -15z m183 -37
c-3 -8 -6 -5 -6 6 -1 11 2 17 5 13 3 -3 4 -12 1 -19z m-208 -16 c0 -9 -11 -39
-24 -67 -19 -40 -23 -45 -24 -25 -1 14 8 40 19 57 11 19 17 40 13 49 -4 12 -3
15 5 10 7 -4 12 -15 11 -24z m178 -65 c-8 -18 -36 -81 -62 -142 -56 -130 -58
-135 -128 -295 -154 -352 -219 -442 -370 -514 -130 -62 -220 -66 -472 -25 -66
11 -147 24 -180 29 -33 5 -100 16 -150 24 -49 8 -126 20 -170 26 -44 6 -116
17 -160 25 -44 8 -154 26 -245 41 -91 14 -168 28 -172 30 -3 2 -51 13 -105 24
-54 11 -122 32 -150 46 -55 26 -124 96 -122 123 0 14 1 14 6 1 26 -66 200
-148 363 -170 41 -6 109 -17 150 -25 41 -8 145 -26 230 -40 85 -13 223 -36
305 -50 83 -15 177 -30 210 -35 33 -5 105 -17 160 -27 69 -12 148 -18 255 -18
149 0 157 1 215 28 78 36 171 108 213 163 18 24 48 79 68 121 20 43 39 85 44
93 4 9 34 78 65 154 32 77 73 168 91 203 19 36 34 70 34 78 0 7 7 18 15 25 8
7 15 19 15 28 0 22 54 134 58 122 2 -6 -3 -25 -11 -43z m-657 -167 c0 -5 -9
-10 -20 -10 -11 0 -20 5 -20 10 0 6 9 10 20 10 11 0 20 -4 20 -10z m-411 -84
c26 -31 -35 -85 -80 -71 -12 4 -19 16 -19 30 0 44 73 73 99 41z"/>
<path d="M5020 6473 c118 -11 227 -26 249 -35 35 -13 42 -27 34 -68 -8 -47
-84 -198 -118 -234 -26 -28 -28 -29 -103 -22 -42 4 -117 14 -166 23 l-88 15 5
36 c6 36 76 186 109 235 11 15 15 27 9 27 -23 0 -151 -227 -151 -269 0 -28 48
-70 87 -76 21 -3 78 -13 127 -21 106 -20 160 -14 187 18 34 38 129 246 129
281 0 53 -22 74 -93 86 -35 6 -106 10 -158 9 -52 0 -78 -3 -59 -5z"/>
<path d="M5506 6413 c-34 -18 -28 -28 8 -12 20 9 32 9 51 1 14 -7 42 -12 62
-12 62 0 167 -22 186 -38 22 -19 18 -48 -14 -129 -20 -50 -47 -75 -35 -33 3
11 9 29 12 40 10 37 -12 21 -24 -17 -9 -29 -9 -39 1 -45 9 -5 6 -19 -13 -53
-30 -56 -82 -85 -115 -64 -11 7 -62 14 -115 16 -120 5 -137 9 -145 32 -7 22
68 224 93 254 8 9 12 20 9 23 -13 13 -41 -22 -69 -86 -16 -36 -40 -86 -54
-111 -39 -75 -29 -121 31 -144 11 -4 49 -11 85 -16 36 -5 89 -13 119 -17 80
-13 129 -1 160 39 56 71 106 177 116 242 13 86 -1 97 -155 121 -157 24 -164
25 -194 9z"/>
<path d="M6015 6350 c-32 -13 -62 -51 -83 -105 -11 -27 -31 -70 -45 -95 -42
-76 -51 -114 -33 -148 8 -16 28 -34 43 -39 36 -14 259 -53 297 -53 51 0 116
84 166 215 27 69 31 85 32 113 2 64 -44 86 -221 107 -143 17 -130 16 -156 5z
m145 -41 c19 -5 54 -9 77 -9 49 0 93 -15 110 -37 13 -17 -2 -64 -59 -181 -32
-67 -45 -77 -120 -88 -32 -6 -40 -4 -36 7 3 8 13 14 24 15 10 1 28 2 40 3 18
1 84 77 84 97 0 7 -33 -29 -48 -51 -21 -31 -122 -49 -138 -24 -4 6 -19 9 -36
5 -17 -3 -41 -3 -55 0 -21 6 -24 11 -21 43 3 30 0 36 -17 36 -47 0 -13 -98 38
-108 19 -4 18 -4 -5 -6 -16 0 -28 3 -28 9 0 15 -43 35 -48 21 -2 -6 -8 -11
-13 -11 -19 0 -8 62 21 123 17 35 30 70 31 78 1 24 35 74 58 85 23 12 78 9
141 -7z m-40 -299 c0 -12 -37 -12 -65 0 -15 7 -10 9 23 9 23 1 42 -3 42 -9z"/>
<path d="M6070 6185 c0 -8 4 -15 10 -15 5 0 7 7 4 15 -4 8 -8 15 -10 15 -2 0
-4 -7 -4 -15z"/>
<path d="M5422 6155 c0 -16 2 -22 5 -12 2 9 2 23 0 30 -3 6 -5 -1 -5 -18z"/>
<path d="M5440 6109 c0 -5 8 -9 19 -9 10 0 40 -3 67 -6 33 -5 46 -3 39 3 -13
14 -125 24 -125 12z"/>
<path d="M5596 6090 c12 -5 25 -13 29 -19 7 -12 35 -15 35 -3 0 9 -50 32 -69
31 -11 0 -8 -3 5 -9z"/>
<path d="M4706 5975 c-26 -13 -140 -195 -161 -257 -31 -89 -8 -106 177 -139
204 -36 205 -35 340 220 15 29 28 68 28 87 0 41 -32 74 -71 74 -16 0 -50 4
-76 10 -70 14 -213 17 -237 5z m281 -30 c84 -24 89 -57 26 -163 -16 -26 -35
-60 -43 -76 -8 -16 -29 -45 -46 -63 -26 -28 -38 -33 -75 -33 -24 1 -71 7 -104
15 -33 8 -76 15 -96 15 -21 0 -47 8 -60 19 l-23 19 18 58 c21 67 89 190 120
217 18 15 36 17 121 13 55 -2 128 -12 162 -21z"/>
<path d="M4798 5643 c7 -3 16 -2 19 1 4 3 -2 6 -13 5 -11 0 -14 -3 -6 -6z"/>
<path d="M5221 5904 c-18 -14 -40 -45 -50 -68 -11 -22 -38 -81 -60 -129 -47
-101 -49 -115 -21 -150 24 -31 59 -43 165 -57 161 -23 187 -23 222 -1 41 26
144 230 151 300 4 44 2 50 -26 70 -31 22 -78 34 -192 51 -114 17 -155 13 -189
-16z m272 -30 c42 -8 80 -23 92 -34 19 -19 19 -21 2 -48 -10 -15 -21 -35 -24
-44 -6 -22 -23 -24 -23 -4 0 8 -12 21 -27 28 -16 7 -32 23 -38 35 -12 28 -46
43 -95 43 -32 0 -48 -7 -81 -37 -33 -30 -42 -34 -50 -22 -8 11 -14 8 -34 -16
l-25 -30 0 25 c1 34 34 105 57 119 22 14 144 7 246 -15z m-47 -59 c12 -18 11
-27 -8 -65 -12 -25 -26 -48 -31 -52 -6 -3 -1 -18 12 -33 27 -35 27 -61 1 -75
-16 -9 -39 -7 -98 8 -43 11 -90 18 -105 15 -19 -4 -29 0 -33 12 -9 23 35 65
77 74 30 6 35 11 39 46 3 22 14 53 24 68 17 25 24 28 64 25 32 -2 49 -9 58
-23z m-315 -208 c-8 -8 -11 -7 -11 4 0 9 3 19 7 23 4 4 9 2 11 -4 3 -7 -1 -17
-7 -23z"/>
<path d="M5780 5847 c-33 -17 -68 -73 -118 -187 -53 -124 -57 -141 -38 -177
17 -34 33 -39 206 -72 125 -23 192 -17 222 20 32 39 117 222 124 266 7 45 -16
106 -44 118 -17 8 -271 44 -307 44 -11 1 -31 -5 -45 -12z m233 -43 c87 -9 117
-31 116 -82 -1 -31 -2 -33 -8 -13 -10 36 -65 61 -135 61 -33 0 -56 -3 -52 -7
4 -5 31 -8 59 -8 47 0 52 -2 55 -23 9 -61 -78 -212 -122 -212 -13 0 -29 7 -36
15 -15 18 -4 55 16 55 21 0 74 29 74 40 0 9 -68 46 -74 39 -23 -29 -56 -87
-56 -101 0 -44 -75 -65 -112 -31 -17 16 -26 55 -10 51 4 -2 26 5 49 14 44 18
63 42 63 78 0 11 7 32 16 45 23 35 1 31 -37 -6 -22 -22 -38 -29 -53 -25 -18 4
-24 -1 -34 -27 -7 -19 -12 -40 -12 -48 0 -18 -49 -78 -50 -61 -1 44 104 259
129 264 9 2 45 0 81 -4 36 -3 96 -10 133 -14z"/>
<path d="M5781 5742 c-14 -26 -14 -42 -1 -42 11 0 25 48 17 56 -3 3 -10 -3
-16 -14z"/>
<path d="M4425 5453 c-25 -24 -63 -85 -103 -163 -57 -112 -62 -128 -53 -153 7
-17 24 -34 45 -42 38 -16 156 -35 268 -42 75 -5 76 -5 111 28 39 37 135 220
144 274 8 50 -3 78 -34 92 -40 17 -154 35 -253 40 l-86 5 -39 -39z m245 -2
c111 -19 144 -31 153 -55 7 -19 -106 -242 -141 -279 -25 -27 -31 -28 -92 -24
-142 9 -275 39 -284 64 -4 9 19 68 55 145 87 180 99 186 309 149z"/>
<path d="M4980 5394 c-19 -17 -55 -76 -95 -156 -105 -210 -95 -232 115 -266
74 -12 148 -22 164 -22 44 0 109 58 131 117 10 26 38 90 63 142 42 87 44 96
31 119 -20 35 -98 60 -249 77 -69 8 -126 15 -127 15 -1 0 -16 -12 -33 -26z
m169 -19 c96 -14 201 -49 201 -67 0 -5 -5 -19 -11 -30 -11 -20 -11 -20 -33 6
-16 20 -32 27 -66 30 -25 2 -35 2 -23 -1 24 -5 104 -73 85 -73 -7 0 -12 -4
-12 -9 0 -19 -77 -145 -97 -158 -19 -13 -33 -12 -110 2 -148 27 -163 33 -163
59 0 13 7 26 15 30 8 3 15 17 15 31 0 24 -2 25 -15 11 -8 -8 -15 -21 -15 -28
0 -7 -8 -22 -16 -33 -16 -20 -16 -19 -11 5 17 83 80 209 114 229 23 13 31 13
142 -4z m-259 -271 c0 -8 -5 -12 -10 -9 -6 4 -8 11 -5 16 9 14 15 11 15 -7z"/>
<path d="M4995 5305 c-34 -33 -32 -52 2 -20 15 14 31 25 35 25 5 0 8 5 8 10 0
17 -20 11 -45 -15z"/>
<path d="M5006 5204 c-19 -28 -18 -56 2 -60 7 -1 8 0 2 3 -15 7 -12 30 6 58 9
14 14 25 11 25 -2 0 -12 -12 -21 -26z"/>
<path d="M5162 5125 c-11 -12 -10 -15 3 -15 8 0 15 7 15 15 0 18 -2 18 -18 0z"/>
<path d="M5458 4843 c6 -2 18 -2 25 0 6 3 1 5 -13 5 -14 0 -19 -2 -12 -5z"/>
<path d="M5108 4763 c7 -3 16 -2 19 1 4 3 -2 6 -13 5 -11 0 -14 -3 -6 -6z"/>
<path d="M4680 4673 c0 -10 7 -12 23 -8 36 12 40 22 7 22 -19 0 -30 -5 -30
-14z"/>
<path d="M4808 4663 c7 -3 16 -2 19 1 4 3 -2 6 -13 5 -11 0 -14 -3 -6 -6z"/>
<path d="M4850 4650 c0 -5 7 -10 16 -10 8 0 12 5 9 10 -3 6 -10 10 -16 10 -5
0 -9 -4 -9 -10z"/>
<path d="M4705 4630 c-3 -5 1 -10 10 -10 9 0 13 5 10 10 -3 6 -8 10 -10 10 -2
0 -7 -4 -10 -10z"/>
<path d="M5650 5205 c-14 -8 -39 -14 -56 -15 -48 0 -98 -73 -92 -133 3 -27 9
-34 43 -45 22 -7 68 -16 102 -19 71 -7 101 7 133 60 27 44 25 71 -10 123 -26
37 -36 44 -63 44 -18 -1 -43 -7 -57 -15z"/>
<path d="M3960 6383 c0 -9 40 -36 45 -31 2 2 -8 11 -21 21 -13 10 -24 14 -24
10z"/>
<path d="M4054 6305 c16 -14 31 -23 34 -20 6 6 -39 44 -53 45 -5 0 3 -11 19
-25z"/>
<path d="M4128 6243 c7 -3 16 -2 19 1 4 3 -2 6 -13 5 -11 0 -14 -3 -6 -6z"/>
<path d="M3710 6030 c0 -5 5 -10 11 -10 5 0 7 5 4 10 -3 6 -8 10 -11 10 -2 0
-4 -4 -4 -10z"/>
<path d="M3898 5993 c12 -2 30 -2 40 0 9 3 -1 5 -23 4 -22 0 -30 -2 -17 -4z"/>
<path d="M4361 3488 c-54 -28 -81 -75 -81 -141 0 -93 56 -151 146 -151 58 0
86 17 82 48 -3 19 -10 21 -62 21 -57 0 -61 2 -79 33 -13 23 -17 42 -13 66 11
58 28 71 93 71 46 0 58 3 61 17 4 20 -32 45 -74 53 -20 4 -43 -1 -73 -17z"/>
<path d="M5182 3498 c-5 -7 -12 -60 -14 -117 -3 -87 -7 -105 -23 -117 -24 -18
-28 -18 -56 5 -20 16 -23 29 -28 122 -6 97 -7 104 -28 107 -35 5 -46 -29 -41
-137 3 -70 9 -103 21 -122 42 -63 140 -65 194 -5 l33 36 0 110 c0 98 -2 110
-19 120 -25 13 -26 13 -39 -2z"/>
<path d="M5301 3494 c-19 -14 -21 -24 -21 -129 0 -153 4 -161 75 -167 71 -6
105 0 112 20 9 21 -24 42 -68 42 -24 0 -39 5 -43 16 -3 9 -6 62 -6 119 0 111
-8 127 -49 99z"/>
<path d="M5592 3493 c-12 -11 -38 -72 -62 -147 -40 -122 -42 -130 -25 -142 18
-14 55 -3 55 16 0 36 87 55 112 24 36 -43 49 -53 63 -48 24 10 17 61 -25 179
-47 133 -72 157 -118 118z m58 -143 c0 -29 -14 -41 -37 -32 -16 5 -16 22 -3
57 9 23 13 25 25 15 8 -7 15 -25 15 -40z"/>
<path d="M5816 3497 c-23 -8 -26 -14 -28 -60 -4 -104 4 -222 16 -235 27 -28
56 7 56 70 0 46 18 41 56 -16 37 -57 54 -69 79 -60 21 8 19 39 -7 83 l-22 38
22 28 c31 39 30 98 -3 130 -13 14 -30 26 -37 26 -49 5 -110 3 -132 -4z m113
-71 c15 -18 5 -41 -25 -55 -32 -14 -31 -14 -44 9 -23 43 38 84 69 46z"/>
<path d="M4557 3493 c-4 -3 -7 -70 -7 -149 0 -161 -4 -154 88 -154 85 0 104 8
100 39 -3 24 -8 26 -58 31 -51 5 -55 7 -55 30 0 22 5 26 45 30 40 4 45 8 45
30 0 22 -5 26 -45 30 -40 4 -45 8 -45 30 0 23 4 25 47 28 49 3 74 22 64 47 -4
12 -24 15 -89 15 -46 0 -87 -3 -90 -7z"/>
<path d="M4787 3494 c-4 -4 -7 -69 -7 -145 0 -123 2 -139 18 -148 23 -13 151
-6 165 8 22 22 -6 46 -59 51 l-49 5 -5 115 c-5 114 -5 115 -30 118 -14 2 -29
0 -33 -4z"/>
</g>
</svg>
