<?xml version="1.0" standalone="no"?>
<!DOCTYPE svg PUBLIC "-//W3C//DTD SVG 20010904//EN"
 "http://www.w3.org/TR/2001/REC-SVG-20010904/DTD/svg10.dtd">
<svg version="1.0" xmlns="http://www.w3.org/2000/svg"
 width="1024.000000pt" height="1046.000000pt" viewBox="0 0 1024.000000 1046.000000"
 preserveAspectRatio="xMidYMid meet">

<g transform="translate(0.000000,1046.000000) scale(0.100000,-0.100000)"
fill="#000000" stroke="none">
<path d="M5679 6736 c-4 -5 -228 -20 -531 -36 -469 -26 -544 -30 -698 -40 -91
-5 -266 -16 -390 -24 -124 -9 -308 -20 -410 -26 -394 -22 -454 -37 -498 -123
l-24 -46 12 -158 c7 -87 14 -183 16 -213 2 -30 9 -95 14 -145 6 -49 15 -144
20 -210 5 -66 17 -187 25 -270 8 -82 19 -193 24 -245 6 -59 6 -99 1 -104 -6
-6 -76 -15 -156 -22 -81 -7 -165 -16 -188 -20 l-41 -8 35 -6 c19 -3 105 -2
190 1 85 4 158 4 162 1 4 -4 12 -63 17 -131 10 -121 12 -127 56 -187 13 -18
-1 -29 -20 -14 -12 10 -23 8 -60 -9 -50 -23 -80 -61 -71 -89 6 -19 84 -102 96
-102 4 0 33 -46 65 -102 32 -57 68 -116 82 -133 26 -33 120 -163 198 -276 27
-39 58 -81 67 -92 10 -11 18 -24 18 -28 0 -5 28 -46 62 -91 81 -105 113 -121
258 -126 58 -2 146 1 195 7 219 28 438 53 540 61 99 8 297 34 335 45 18 5 369
51 535 70 300 34 601 72 835 104 41 6 161 22 265 37 185 25 254 41 295 66 33
21 23 29 -16 13 -20 -8 -41 -12 -47 -8 -7 4 -2 9 12 13 43 10 65 53 69 136 l4
74 -38 36 c-83 76 -467 362 -659 492 -60 41 -119 83 -131 93 -11 10 -23 19
-27 19 -4 0 -29 16 -55 35 -27 19 -59 38 -72 43 -23 8 -24 14 -25 96 -1 55 2
89 9 91 6 2 88 8 181 14 151 10 269 27 210 31 -52 3 -267 -2 -329 -9 -63 -7
-69 -6 -77 13 -8 20 -16 128 -39 491 -5 83 -14 195 -20 250 -5 55 -15 174 -21
265 -23 348 -25 365 -43 403 -20 41 -53 68 -105 85 -33 12 -103 16 -112 8z
m69 -53 c-10 -2 -26 -2 -35 0 -10 3 -2 5 17 5 19 0 27 -2 18 -5z m-208 -12 c0
-14 -95 -21 -265 -19 l-160 1 175 8 c96 5 186 10 200 12 46 7 50 7 50 -2z m93
2 c-13 -2 -33 -2 -45 0 -13 2 -3 4 22 4 25 0 35 -2 23 -4z m-615 -40 c-26 -2
-71 -2 -100 0 -29 2 -8 3 47 3 55 0 79 -1 53 -3z m-190 -10 c-16 -2 -40 -2
-55 0 -16 2 -3 4 27 4 30 0 43 -2 28 -4z m-188 -14 c-25 -4 -67 -7 -95 -7
l-50 1 45 7 c25 4 68 7 95 7 l50 0 -45 -8z m-360 -20 c-25 -4 -76 -7 -115 -7
-64 1 -66 2 -25 8 25 4 77 7 115 7 66 0 67 0 25 -8z m-310 -19 c-25 -4 -130
-10 -235 -13 -135 -4 -162 -3 -92 3 54 4 101 11 104 14 4 3 65 5 137 5 95 -1
119 -4 86 -9z m-480 -31 c-25 -4 -63 -8 -86 -8 -60 -1 -142 -28 -147 -49 -3
-12 -5 -13 -6 -2 0 8 6 24 14 34 16 21 93 33 210 33 l60 0 -45 -8z m2244 -28
c3 -4 12 -64 20 -132 9 -68 20 -162 26 -209 21 -175 40 -544 29 -551 -6 -3
-25 -3 -43 2 -102 26 -125 33 -166 52 -25 11 -72 22 -105 25 -75 5 -143 -23
-261 -109 -81 -58 -110 -69 -130 -49 -6 6 -40 13 -77 17 l-66 6 -133 -67
c-153 -77 -187 -85 -254 -62 -26 9 -61 16 -78 16 -20 0 -42 10 -59 25 -34 32
-36 14 -2 -23 21 -22 34 -27 86 -28 34 -2 66 -7 72 -13 6 -6 19 -11 28 -11 9
0 30 -7 45 -15 l29 -15 -31 0 c-17 0 -73 -3 -124 -7 -70 -5 -91 -3 -86 5 4 7
1 12 -9 12 -9 0 -30 8 -48 17 -22 12 -59 18 -117 19 -47 2 -100 4 -119 5 -22
2 -38 -3 -46 -14 -7 -9 -20 -17 -29 -17 -10 0 -27 -5 -38 -11 -14 -8 -27 -8
-43 -1 -18 8 -25 8 -29 -4 -8 -20 -66 -17 -96 6 l-25 19 57 -2 c59 -1 87 14
158 83 16 16 43 36 59 46 17 10 31 22 31 26 0 14 -76 -30 -125 -72 -69 -60
-78 -63 -164 -55 -84 7 -243 -16 -250 -36 -11 -33 -41 -48 -91 -46 -45 2 -52
5 -57 27 -3 14 -10 27 -14 30 -15 10 -99 953 -86 966 3 4 59 10 124 15 65 4
253 17 418 28 165 11 419 27 565 36 146 8 315 20 375 25 126 11 431 29 680 39
94 4 175 8 182 9 6 1 14 -2 17 -7z m-202 -846 c55 -9 54 -21 -2 -49 -27 -14
-60 -35 -72 -46 -13 -12 -36 -29 -53 -37 -16 -9 -52 -31 -80 -51 -62 -44 -120
-56 -196 -40 -49 10 -70 9 -135 -5 -42 -9 -85 -24 -94 -32 -17 -15 -55 -21
-47 -7 3 4 -20 8 -51 9 -67 3 -88 18 -46 33 40 14 70 29 134 67 63 37 134 44
205 18 54 -19 81 -18 103 3 10 9 26 22 34 27 8 6 39 28 68 50 56 42 141 76
175 70 11 -2 37 -7 57 -10z m301 -248 c3 -7 3 -26 0 -41 -6 -29 -35 -46 -81
-46 -28 0 -199 -30 -347 -60 -49 -10 -110 -22 -135 -25 -68 -10 -221 -55 -256
-75 -21 -12 -36 -15 -47 -8 -18 10 -67 1 -67 -13 0 -5 -49 -6 -115 -3 -77 5
-119 3 -128 -4 -12 -11 -280 -1 -317 12 -8 2 -112 7 -230 9 l-215 5 -13 25
c-15 31 -7 56 22 62 11 3 93 9 181 15 88 6 205 17 260 25 55 8 168 19 250 25
83 6 240 19 351 30 110 11 283 27 385 36 183 16 464 40 485 43 7 0 14 -5 17
-12z m-2076 -28 c19 -19 3 -39 -32 -39 -41 0 -54 16 -29 35 23 17 46 19 61 4z
m70 5 c-3 -3 -12 -4 -19 -1 -8 3 -5 6 6 6 11 1 17 -2 13 -5z m21 -150 c2 -81
-1 -114 -10 -121 -7 -6 -49 -14 -94 -18 -63 -5 -83 -4 -92 7 -17 21 -36 196
-23 212 7 9 27 12 59 9 27 -3 64 1 87 10 69 26 70 25 73 -99z m-247 -67 c8
-47 -4 -57 -64 -53 -54 4 -54 4 -57 31 -5 48 -1 54 43 58 68 6 71 5 78 -36z
m2486 -242 c32 -21 114 -78 183 -128 69 -50 181 -131 250 -181 224 -162 425
-313 449 -339 47 -51 5 -67 -259 -102 -157 -20 -260 -33 -375 -45 -49 -5 -151
-18 -225 -29 -74 -10 -187 -24 -250 -30 -63 -7 -203 -23 -310 -36 -344 -44
-663 -85 -732 -95 -37 -6 -86 -10 -109 -10 -24 0 -68 -4 -98 -10 -65 -11 -195
-28 -296 -40 -38 -4 -118 -13 -177 -20 -130 -15 -168 -9 -216 34 -41 37 -52
53 -304 436 -226 343 -230 350 -225 364 3 8 52 17 136 24 117 11 133 11 156
-4 27 -18 107 -15 305 11 58 8 200 23 315 34 116 12 255 25 310 31 55 6 159
15 230 20 72 6 162 15 200 20 39 5 210 23 380 40 171 17 320 33 331 35 12 3
24 13 27 24 4 15 17 21 63 26 33 3 66 8 74 10 47 12 112 -4 167 -40z m877
-786 c-36 -39 -35 -15 1 41 8 13 10 12 13 -3 2 -10 -4 -27 -14 -38z m-51 14
c-13 -2 -33 -2 -45 0 -13 2 -3 4 22 4 25 0 35 -2 23 -4z m-94 -17 c-7 -8 -98
-10 -105 -3 -4 4 19 7 51 7 32 0 56 -2 54 -4z m-159 -16 c0 -10 -35 -17 -128
-24 -35 -2 -60 0 -56 5 3 5 31 9 62 10 31 1 68 5 82 9 35 11 40 11 40 0z m30
-30 c0 -5 -4 -10 -10 -10 -5 0 -10 5 -10 10 0 6 5 10 10 10 6 0 10 -4 10 -10z
m-272 -7 c-10 -2 -28 -2 -40 0 -13 2 -5 4 17 4 22 1 32 -1 23 -4z m240 -8 c-9
-7 -168 -12 -168 -5 0 5 30 10 68 12 60 3 108 -1 100 -7z m-190 -22 c-10 -2
-28 -2 -40 0 -13 2 -5 4 17 4 22 1 32 -1 23 -4z m-800 -50 c-15 -2 -42 -2 -60
0 -18 2 -6 4 27 4 33 0 48 -2 33 -4z m1045 0 c-18 -2 -48 -2 -65 0 -18 2 -4 4
32 4 36 0 50 -2 33 -4z m-1200 -20 c-7 -2 -21 -2 -30 0 -10 3 -4 5 12 5 17 0
24 -2 18 -5z m-60 -10 c-7 -2 -19 -2 -25 0 -7 3 -2 5 12 5 14 0 19 -2 13 -5z
m-295 -40 c-10 -2 -26 -2 -35 0 -10 3 -2 5 17 5 19 0 27 -2 18 -5z m-63 -13
c-3 -5 -19 -10 -34 -10 -15 0 -43 -5 -62 -12 l-34 -12 30 -7 30 -7 -35 -1
c-20 0 -41 4 -46 9 -6 6 -18 8 -28 4 -13 -5 -14 -9 -5 -20 10 -12 -2 -14 -72
-13 -58 1 -76 4 -59 9 18 6 6 8 -43 9 -43 1 -66 5 -62 11 3 6 22 10 41 10 19
0 54 4 77 10 23 5 94 14 157 19 63 4 123 9 133 10 10 0 15 -3 12 -9z m-582
-67 c-7 -2 -21 -2 -30 0 -10 3 -4 5 12 5 17 0 24 -2 18 -5z m-103 -13 c0 -6
-28 -9 -67 -8 l-68 1 60 7 c33 4 63 7 68 8 4 1 7 -2 7 -8z m-405 -21 c38 -10
43 -14 42 -37 -2 -28 -22 -43 -44 -35 -7 3 -13 11 -13 18 0 7 -9 24 -21 39
-23 30 -23 30 36 15z m245 1 c-14 -4 -52 -8 -85 -8 -41 0 -52 2 -35 7 36 10
152 11 120 1z"/>
<path d="M3576 6287 c-32 -11 -35 -29 -26 -149 5 -57 6 -106 3 -111 -3 -5 -16
-12 -29 -17 -18 -7 -24 -17 -24 -41 l0 -32 147 8 c82 4 156 11 165 16 21 11
23 40 6 57 -18 18 -25 15 -24 -10 1 -21 -4 -23 -49 -26 -27 -1 -84 -6 -125
-12 -41 -5 -79 -5 -84 0 -19 19 8 30 74 30 72 0 170 18 170 31 0 13 -18 20
-25 9 -9 -15 -150 -13 -163 3 -13 16 -37 190 -29 212 5 12 23 15 81 15 102 0
106 -2 107 -64 0 -28 4 -71 8 -96 8 -40 9 -36 10 38 1 90 -16 141 -47 143 -64
5 -125 3 -146 -4z"/>
<path d="M3660 5839 c-87 -25 -103 -46 -98 -125 3 -46 11 -72 31 -103 32 -48
34 -65 8 -56 -23 7 -44 -17 -39 -47 3 -21 8 -23 58 -21 112 3 208 21 231 41
26 25 16 46 -17 38 -28 -7 -30 2 -9 59 31 88 12 185 -44 218 -35 21 -39 20
-121 -4z m107 -19 c52 -31 67 -113 34 -185 -28 -62 -48 -75 -101 -65 -82 15
-137 113 -110 195 8 24 23 39 53 54 53 25 84 26 124 1z m33 -282 c0 -10 -55
-20 -118 -20 -31 0 -63 -5 -70 -11 -21 -17 -27 2 -6 21 16 16 34 19 107 18 48
0 87 -4 87 -8z"/>
<path d="M3733 5784 c8 -29 -6 -107 -20 -111 -7 -3 -17 7 -23 21 -5 14 -14 26
-19 26 -5 0 -13 9 -16 21 -4 11 -12 18 -18 16 -14 -4 -10 -102 4 -129 15 -27
76 -53 93 -39 21 18 48 80 40 92 -3 6 -9 34 -13 62 -3 29 -12 52 -20 55 -9 3
-11 -2 -8 -14z"/>
<path d="M3675 5781 c-3 -5 -1 -12 5 -16 12 -7 30 2 30 16 0 12 -27 12 -35 0z"/>
<path d="M4238 5573 c12 -2 30 -2 40 0 9 3 -1 5 -23 4 -22 0 -30 -2 -17 -4z"/>
<path d="M3680 5260 c0 -17 3 -19 19 -10 11 5 27 7 37 3 12 -4 15 -2 12 8 -2
8 -19 15 -36 17 -27 3 -32 0 -32 -18z"/>
<path d="M3730 5200 c0 -5 -7 -10 -15 -10 -22 0 -18 -17 5 -23 13 -3 24 1 30
13 13 25 13 30 -5 30 -8 0 -15 -4 -15 -10z"/>
<path d="M5844 4879 c-3 -6 -18 -9 -33 -6 -14 3 -55 1 -91 -5 -74 -11 -217
-25 -333 -32 -43 -3 -88 -11 -100 -19 -14 -9 -30 -11 -43 -7 -11 5 -50 4 -85
-1 -35 -5 -93 -11 -129 -14 -36 -2 -117 -9 -180 -15 -63 -7 -151 -14 -195 -17
-43 -2 -88 -9 -99 -15 -11 -6 -65 -11 -121 -12 -69 -1 -107 -5 -118 -14 -10
-9 -22 -10 -32 -5 -8 5 -41 6 -73 2 -31 -4 -83 -11 -115 -15 -32 -4 -60 -10
-62 -15 -3 -4 -20 -5 -38 -3 -17 3 -66 1 -107 -5 -41 -5 -118 -12 -170 -14
-141 -7 -154 -18 -103 -86 16 -20 43 -58 62 -86 75 -110 203 -274 219 -280 19
-7 202 14 202 24 0 3 45 7 100 7 55 1 106 6 113 12 6 6 40 10 74 10 64 0 141
10 158 20 6 4 49 7 97 8 47 1 101 7 120 12 18 6 110 18 203 28 357 35 433 44
525 59 52 9 143 20 203 25 59 5 120 16 135 24 18 9 43 13 68 9 21 -3 64 0 94
6 30 6 92 13 137 16 46 2 92 9 102 15 11 5 60 10 108 10 64 0 95 4 109 15 18
15 18 16 -16 45 -19 17 -42 30 -52 30 -10 0 -23 11 -28 24 -9 26 -35 46 -237
189 l-122 87 -70 0 c-40 0 -73 -5 -77 -11z m421 -299 c3 -5 -6 -12 -20 -16
-29 -7 -41 -1 -30 15 8 14 42 14 50 1z m-236 -24 c9 -10 8 -16 -3 -25 -12 -10
-17 -8 -25 8 -6 11 -11 22 -11 25 0 11 28 6 39 -8z"/>
<path d="M5580 4359 c-36 -5 -141 -18 -235 -29 -453 -52 -535 -64 -535 -79 0
-15 85 -123 157 -198 34 -36 47 -44 66 -39 51 12 230 37 367 51 80 8 172 19
205 25 33 5 122 17 197 25 138 15 168 21 168 34 0 4 -51 55 -114 114 -129 120
-118 117 -276 96z m219 -71 c37 -35 83 -74 101 -89 50 -37 37 -56 -42 -58 -71
-3 -213 -19 -433 -49 -82 -12 -193 -26 -245 -32 -52 -6 -109 -13 -126 -16 -27
-5 -36 0 -70 37 -22 24 -63 67 -93 97 -56 55 -58 75 -8 79 12 0 65 6 117 12
52 6 160 15 240 21 79 5 167 14 195 19 101 18 191 32 240 34 28 2 51 4 53 5 1
1 33 -26 71 -60z"/>
<path d="M4765 3680 c-4 -6 11 -10 37 -9 33 0 38 2 23 9 -28 12 -53 12 -60 0z"/>
<path d="M4693 3663 c9 -2 23 -2 30 0 6 3 -1 5 -18 5 -16 0 -22 -2 -12 -5z"/>
<path d="M3595 3326 c-45 -21 -73 -56 -85 -109 -14 -66 0 -117 45 -156 47 -41
119 -44 162 -7 26 23 27 26 11 42 -14 15 -22 16 -43 6 -40 -18 -62 -14 -84 14
-28 36 -28 102 -1 132 23 24 45 27 84 12 19 -7 29 -6 41 6 21 21 19 31 -9 49
-34 23 -86 27 -121 11z"/>
<path d="M3830 3321 c-44 -23 -80 -84 -80 -135 0 -49 31 -114 67 -140 37 -27
113 -27 150 0 86 63 83 212 -6 271 -41 28 -85 29 -131 4z m104 -70 c44 -48 18
-161 -37 -161 -42 0 -60 23 -65 82 -4 47 -1 59 17 77 26 26 62 27 85 2z"/>
<path d="M4442 3324 c-21 -14 -22 -22 -22 -132 0 -146 4 -162 39 -162 25 0 29
5 37 47 9 47 10 48 54 55 77 13 111 80 79 152 -23 50 -138 75 -187 40z m109
-63 c22 -18 22 -19 6 -45 -34 -51 -80 -21 -58 38 12 31 21 32 52 7z"/>
<path d="M4862 3324 c-20 -14 -22 -23 -22 -114 0 -88 -2 -100 -19 -110 -24
-12 -41 -13 -61 0 -11 7 -16 36 -20 117 l-5 108 -30 0 -30 0 0 -117 0 -118 31
-31 c27 -26 40 -31 81 -32 57 -1 95 22 115 68 19 44 17 210 -2 230 -14 13 -18
13 -38 -1z"/>
<path d="M4962 3328 c-28 -28 -8 -58 38 -58 25 0 30 -19 30 -124 0 -95 8 -116
42 -116 23 0 27 22 31 145 l2 100 37 3 c41 3 55 24 32 47 -20 19 -193 22 -212
3z"/>
<path d="M5278 3326 c-19 -18 -101 -264 -94 -282 10 -25 46 -16 64 16 15 26
23 30 59 30 35 0 45 -5 63 -31 32 -43 65 -37 64 12 -1 32 -35 138 -67 209 -26
57 -60 75 -89 46z m54 -132 c9 -34 -9 -58 -36 -48 -13 5 -16 13 -10 38 3 17 8
35 11 39 9 15 27 1 35 -29z"/>
<path d="M5493 3330 c-22 -9 -23 -14 -23 -138 0 -162 3 -166 91 -160 48 3 74
10 98 27 59 42 78 130 43 201 -30 62 -139 98 -209 70z m131 -79 c10 -11 20
-37 23 -58 4 -32 0 -45 -22 -71 -27 -32 -58 -41 -70 -21 -6 8 -8 78 -6 152 1
24 53 23 75 -2z"/>
<path d="M5840 3332 c-69 -31 -90 -70 -90 -163 0 -54 3 -61 38 -99 35 -36 43
-40 89 -40 90 0 141 55 142 155 2 100 -99 183 -179 147z m85 -84 c23 -27 26
-39 22 -75 -8 -76 -63 -107 -107 -63 -39 39 -20 145 30 163 25 9 27 8 55 -25z"/>
<path d="M4091 3321 c-22 -14 -36 -260 -17 -280 32 -31 66 15 66 90 0 21 3 39
8 39 4 0 16 -24 27 -52 17 -44 25 -53 45 -53 19 0 29 10 49 53 14 28 29 52 33
52 5 0 8 -26 8 -57 0 -69 9 -86 41 -81 l24 3 -2 128 c-2 70 -7 136 -13 147 -7
13 -21 20 -41 20 -26 0 -33 -6 -50 -44 -10 -24 -22 -58 -25 -75 -10 -49 -28
-37 -60 42 -24 60 -33 72 -54 75 -14 1 -31 -2 -39 -7z"/>
<path d="M6066 3318 c-7 -20 -14 -262 -9 -275 7 -19 60 -16 67 3 3 9 6 33 6
55 0 21 4 39 10 39 5 0 24 -23 42 -50 37 -56 62 -70 86 -46 15 15 15 20 -7 60
l-23 44 22 30 c29 40 23 107 -12 134 -28 22 -176 26 -182 6z m115 -48 c10 -6
19 -17 19 -25 0 -16 -49 -57 -60 -50 -15 9 -21 57 -9 71 14 17 24 17 50 4z"/>
</g>
</svg>
