<?xml version="1.0" standalone="no"?>
<!DOCTYPE svg PUBLIC "-//W3C//DTD SVG 20010904//EN"
 "http://www.w3.org/TR/2001/REC-SVG-20010904/DTD/svg10.dtd">
<svg version="1.0" xmlns="http://www.w3.org/2000/svg"
 width="1024.000000pt" height="1046.000000pt" viewBox="0 0 1024.000000 1046.000000"
 preserveAspectRatio="xMidYMid meet">

<g transform="translate(0.000000,1046.000000) scale(0.100000,-0.100000)"
fill="#000000" stroke="none">
<path d="M5730 6781 c-24 -8 -150 -70 -278 -137 l-54 -28 -86 29 c-140 46
-181 42 -332 -31 -124 -60 -126 -61 -165 -47 -22 7 -51 19 -64 26 -42 21 -168
15 -231 -12 -145 -62 -1034 -500 -1132 -557 -138 -81 -161 -128 -160 -329 2
-213 16 -341 46 -414 14 -36 26 -70 26 -78 0 -21 75 -85 143 -122 174 -94 401
-211 412 -211 6 0 95 -41 260 -120 241 -116 267 -117 453 -19 111 59 487 268
562 313 19 12 49 28 65 36 17 8 82 43 145 79 63 35 129 72 145 81 243 133 286
183 295 342 l5 88 120 77 c209 135 210 136 203 292 -2 58 -10 116 -16 127 -9
18 -8 25 11 42 12 11 38 29 57 39 185 103 250 159 250 213 0 55 -57 110 -114
110 -27 0 -142 -58 -247 -126 -38 -24 -77 -44 -87 -44 -9 0 -49 15 -87 33 -39
19 -96 42 -128 51 -33 11 -56 23 -54 30 2 6 30 26 63 44 32 18 69 44 82 58 64
72 -15 194 -108 165z m58 -53 c16 -16 16 -69 0 -67 -18 3 -41 -6 -140 -55 -75
-36 -94 -42 -130 -37 -27 4 -43 11 -43 20 0 16 250 150 281 151 11 0 25 -5 32
-12z m-633 -107 c-6 -11 -109 -51 -128 -51 -15 1 103 58 121 59 7 1 11 -3 7
-8z m-497 -68 c-10 -2 -18 -9 -18 -14 0 -5 -10 -9 -22 -9 -23 0 -119 -46 -775
-371 -199 -98 -372 -179 -383 -179 -28 0 -25 19 6 30 14 6 230 111 479 235
250 124 456 225 458 225 2 0 35 15 73 32 64 30 149 56 184 56 10 0 9 -2 -2 -5z
m342 -8 c-14 -8 -34 -14 -44 -15 -20 0 -20 0 0 15 10 8 30 14 44 14 l25 0 -25
-14z m1342 -50 c13 -29 -3 -56 -30 -48 -10 2 -47 -13 -82 -35 -36 -21 -83 -47
-105 -57 -22 -10 -47 -24 -55 -31 -12 -10 -20 -11 -40 -1 -38 19 -30 36 35 72
33 18 94 54 135 79 85 53 125 59 142 21z m-417 -155 c3 -5 -1 -10 -10 -10 -9
0 -13 5 -10 10 3 6 8 10 10 10 2 0 7 -4 10 -10z m-1502 -27 c-7 -2 -19 -2 -25
0 -7 3 -2 5 12 5 14 0 19 -2 13 -5z m53 -28 c10 -8 28 -15 40 -15 11 0 24 -4
30 -9 5 -5 36 -18 69 -30 33 -12 75 -31 93 -42 18 -10 37 -19 43 -19 5 0 46
-18 91 -40 63 -30 76 -40 55 -40 -15 0 -27 3 -27 8 0 8 -30 22 -125 57 -38 14
-78 30 -87 35 -10 6 -23 10 -29 10 -6 0 -17 7 -25 15 -8 8 -33 19 -56 25 -43
12 -74 27 -96 48 -19 17 0 15 24 -3z m-156 -35 c0 -10 -80 -50 -101 -50 -19 0
31 48 55 53 38 8 46 7 46 -3z m123 -27 c-7 -2 -19 -2 -25 0 -7 3 -2 5 12 5 14
0 19 -2 13 -5z m-53 -23 c0 -5 -6 -10 -14 -10 -8 0 -18 5 -21 10 -3 6 3 10 14
10 12 0 21 -4 21 -10z m135 -10 c3 -5 -1 -10 -9 -10 -9 0 -16 5 -16 10 0 6 4
10 9 10 6 0 13 -4 16 -10z m1070 -20 c3 -5 1 -10 -4 -10 -6 0 -11 5 -11 10 0
6 2 10 4 10 3 0 8 -4 11 -10z m-990 -10 c3 -5 2 -10 -4 -10 -5 0 -13 5 -16 10
-3 6 -2 10 4 10 5 0 13 -4 16 -10z m-495 -20 c0 -5 -5 -10 -11 -10 -5 0 -7 5
-4 10 3 6 8 10 11 10 2 0 4 -4 4 -10z m193 -7 c-7 -2 -21 -2 -30 0 -10 3 -4 5
12 5 17 0 24 -2 18 -5z m100 0 c-7 -2 -19 -2 -25 0 -7 3 -2 5 12 5 14 0 19 -2
13 -5z m1154 1 c-3 -3 -12 -4 -19 -1 -8 3 -5 6 6 6 11 1 17 -2 13 -5z m-1519
-31 c2 -8 -5 -13 -17 -13 -12 0 -21 6 -21 16 0 18 31 15 38 -3z m1469 11 c-3
-3 -12 -4 -19 -1 -8 3 -5 6 6 6 11 1 17 -2 13 -5z m-1268 -20 c9 -9 -6 -11
-36 -7 -18 3 -33 10 -33 15 0 9 58 2 69 -8z m491 7 c0 -11 -59 -36 -67 -27 -3
3 1 6 10 6 10 0 17 4 17 9 0 5 8 12 18 14 9 3 18 5 20 6 1 0 2 -3 2 -8z m-597
-42 c23 -12 64 -30 92 -40 27 -10 41 -18 29 -18 -11 -1 -44 10 -72 24 -29 14
-58 25 -66 25 -7 0 -19 7 -26 15 -17 20 -7 19 43 -6z m277 17 c0 -3 -4 -8 -10
-11 -5 -3 -10 -1 -10 4 0 6 5 11 10 11 6 0 10 -2 10 -4z m-100 -16 c0 -5 -5
-10 -11 -10 -5 0 -7 5 -4 10 3 6 8 10 11 10 2 0 4 -4 4 -10z m500 -8 c0 -5
-11 -14 -25 -20 -29 -13 -33 -5 -7 14 20 15 32 18 32 6z m-330 -10 c0 -11 -51
-35 -58 -28 -3 3 1 12 8 21 13 16 50 21 50 7z m150 -33 c0 -5 -4 -9 -10 -9 -5
0 -10 7 -10 16 0 8 5 12 10 9 6 -3 10 -10 10 -16z m-70 -9 c-36 -11 -50 -11
-50 0 0 6 17 10 38 9 33 -1 34 -2 12 -9z m730 0 c-20 -13 -33 -13 -25 0 3 6
14 10 23 10 15 0 15 -2 2 -10z m-983 -16 c-3 -3 -12 -4 -19 -1 -8 3 -5 6 6 6
11 1 17 -2 13 -5z m496 -21 c-13 -2 -23 -9 -23 -14 0 -5 -8 -9 -17 -9 -16 1
-16 2 1 15 11 8 29 14 40 14 19 -2 19 -2 -1 -6z m-348 -39 c31 -15 54 -28 52
-30 -4 -4 -127 42 -135 51 -15 14 34 2 83 -21z m165 6 c0 -16 -47 -16 -64 1
-6 5 4 9 27 9 20 0 37 -4 37 -10z m120 -8 c0 -10 -70 -45 -77 -39 -4 5 58 47
70 47 4 0 7 -4 7 -8z m356 -29 c-10 -3 -24 -9 -30 -15 -6 -5 -27 -19 -46 -31
-19 -11 -59 -36 -89 -54 -29 -18 -59 -33 -66 -33 -8 0 -15 -3 -17 -7 -6 -15
-109 -64 -119 -57 -9 5 132 94 148 94 3 0 19 10 36 22 54 39 151 85 177 86 18
0 20 -2 6 -5z m-530 -22 c5 -5 18 -11 29 -13 11 -2 15 -6 10 -10 -6 -3 -28 2
-50 12 -28 14 -34 19 -19 20 11 0 24 -4 30 -9z m-151 -321 c7 0 15 -7 19 -15
3 -8 0 -15 -6 -15 -13 0 -38 30 -37 45 0 6 3 4 6 -2 2 -7 11 -13 18 -13z m65
10 c-19 -13 -30 -13 -30 0 0 6 10 10 23 10 18 0 19 -2 7 -10z m-595 -180 c77
-34 154 -67 170 -75 17 -7 38 -16 48 -19 23 -7 44 -53 30 -67 -8 -8 -28 -2
-69 17 -33 15 -124 57 -203 94 -80 36 -149 73 -154 82 -6 8 -7 28 -3 44 l8 29
16 -22 c10 -13 79 -49 157 -83z"/>
<path d="M5959 5240 c-225 -26 -469 -138 -675 -312 -48 -40 -113 -95 -146
-121 -32 -26 -69 -59 -83 -72 -17 -17 -35 -25 -60 -25 -44 0 -83 -20 -136 -67
l-40 -36 -53 18 c-70 24 -109 15 -188 -40 -35 -24 -119 -82 -188 -129 -125
-84 -176 -123 -237 -183 -30 -28 -33 -36 -33 -92 0 -58 -1 -61 -37 -88 -78
-59 -103 -89 -103 -125 0 -23 7 -41 23 -55 30 -27 253 -133 280 -133 12 0 55
25 94 55 40 30 77 55 83 55 6 0 22 -7 36 -16 42 -28 83 -13 194 73 56 43 136
104 178 136 42 32 106 81 140 109 l64 52 41 -13 c90 -26 199 -41 347 -47 348
-15 666 62 918 222 80 51 202 179 236 247 71 147 30 331 -102 449 -118 106
-340 162 -553 138z m237 -41 c173 -31 302 -108 367 -221 150 -259 -109 -567
-578 -686 -169 -43 -205 -47 -445 -47 -231 0 -293 6 -395 39 l-40 13 0 54 c0
62 -8 60 115 27 76 -20 109 -22 300 -23 233 0 301 8 463 56 234 70 408 184
468 307 12 24 23 71 26 105 3 52 0 69 -19 102 -75 128 -295 198 -511 162 -115
-20 -168 -37 -272 -89 -146 -73 -309 -190 -460 -330 -22 -21 -43 -38 -48 -38
-19 0 -87 54 -86 69 0 17 227 209 340 288 131 92 331 179 479 208 81 16 218
18 296 4z m65 -188 c111 -42 179 -111 179 -181 0 -73 -20 -112 -90 -181 -115
-113 -273 -187 -505 -234 -112 -23 -154 -26 -310 -26 -157 0 -193 3 -283 25
-57 13 -107 27 -110 31 -4 4 1 12 11 19 9 7 17 23 17 35 0 40 38 96 107 158
205 183 439 324 603 362 117 27 297 23 381 -8z m-1196 -362 c17 -12 40 -35 52
-52 22 -30 19 -55 -10 -94 -11 -14 -53 -18 -59 -5 -1 5 -39 23 -83 41 -84 35
-107 49 -103 62 2 4 21 22 43 38 50 38 113 42 160 10z m-277 -68 c78 -27 212
-98 239 -127 12 -13 25 -40 29 -60 12 -62 -10 -103 -89 -170 -60 -51 -271
-215 -337 -262 -17 -12 -19 -9 -25 40 -4 29 -12 62 -18 73 -12 22 -47 54 -62
55 -5 0 -58 25 -118 54 -59 30 -130 60 -157 67 -28 7 -50 18 -50 23 1 6 14 20
31 31 16 11 114 77 217 146 103 70 196 132 207 138 30 16 69 13 133 -8z m-573
-357 c14 -6 13 -9 -6 -30 -36 -38 -72 -26 -49 16 11 21 26 25 55 14z m141 -49
c41 -19 79 -35 83 -35 20 0 101 -53 101 -65 0 -10 -25 -2 -82 25 -153 71 -197
90 -207 90 -6 0 -11 5 -11 10 0 19 40 10 116 -25z m-75 -48 c45 -30 132 -67
158 -67 41 0 20 -27 -75 -99 l-96 -73 -51 22 c-123 52 -177 81 -177 94 0 7 19
26 43 41 23 15 53 40 67 55 50 55 81 61 131 27z m276 -191 c-8 -19 -37 -21
-37 -3 0 7 5 18 12 25 15 15 33 -1 25 -22z"/>
<path d="M4610 4390 c0 -5 5 -10 11 -10 5 0 7 5 4 10 -3 6 -8 10 -11 10 -2 0
-4 -4 -4 -10z"/>
<path d="M3551 3358 c-64 -33 -83 -74 -79 -168 2 -63 7 -81 28 -107 43 -55
104 -66 170 -33 30 15 40 27 40 44 0 31 -24 39 -61 20 -57 -29 -109 16 -109
93 0 36 6 50 29 74 33 33 51 36 85 14 47 -31 83 13 43 53 -35 35 -92 39 -146
10z"/>
<path d="M3842 3367 c-11 -13 -75 -189 -94 -259 -6 -21 -8 -44 -4 -53 9 -24
44 -17 63 13 24 37 32 42 80 42 37 0 43 -4 62 -36 16 -26 27 -35 44 -32 34 5
33 51 -6 153 -19 50 -37 102 -41 118 -13 55 -76 88 -104 54z m57 -138 c6 -18
11 -38 11 -44 0 -20 -32 -27 -48 -11 -12 11 -12 20 -2 50 14 44 25 45 39 5z"/>
<path d="M4080 3360 c-18 -18 -20 -33 -20 -151 0 -141 7 -169 45 -169 29 0 37
11 37 54 0 74 32 73 73 -3 29 -52 49 -66 79 -55 25 10 19 52 -14 94 l-30 38
30 37 c55 70 33 141 -51 165 -59 17 -127 12 -149 -10z m135 -66 c21 -22 16
-46 -14 -60 -29 -15 -48 -9 -56 17 -16 50 33 80 70 43z"/>
<path d="M4377 3362 c-25 -27 -25 -293 -1 -317 26 -26 58 2 64 55 3 24 10 45
16 47 7 2 26 -15 44 -39 51 -66 69 -79 91 -68 26 14 24 38 -6 82 -14 20 -25
41 -25 47 0 5 11 22 25 37 48 51 27 132 -41 160 -50 21 -147 18 -167 -4z m127
-65 c10 -7 17 -22 14 -32 -4 -26 -48 -48 -65 -33 -14 11 -18 60 -6 71 10 11
38 8 57 -6z"/>
<path d="M4745 3373 c-32 -2 -65 -9 -72 -15 -10 -8 -13 -50 -13 -159 0 -175
-4 -169 118 -161 55 3 75 8 82 21 14 27 -1 38 -62 45 -52 7 -58 10 -58 31 0
29 15 39 59 40 37 0 58 22 48 49 -5 11 -19 16 -51 16 -34 0 -48 5 -55 19 -17
30 7 50 64 53 40 2 51 7 53 22 4 20 -23 48 -42 44 -6 -1 -38 -3 -71 -5z"/>
<path d="M4978 3360 c-56 -30 -82 -80 -80 -156 1 -90 38 -143 116 -165 88 -24
149 16 161 106 9 74 -1 85 -75 85 -43 0 -59 -4 -64 -15 -6 -18 27 -55 49 -55
20 0 19 -24 -1 -44 -28 -29 -68 -18 -89 25 -29 54 -15 126 30 155 24 16 29 16
60 1 37 -18 60 -14 69 9 23 60 -95 96 -176 54z"/>
<path d="M5307 3363 c-22 -26 -107 -265 -107 -304 0 -31 58 -26 70 5 24 64
124 62 145 -4 13 -42 75 -32 75 12 0 11 -15 59 -34 107 -19 47 -40 104 -47
126 -17 52 -37 75 -64 75 -12 0 -29 -8 -38 -17z m57 -125 c13 -49 7 -68 -19
-68 -21 0 -25 5 -25 29 0 58 31 86 44 39z"/>
<path d="M5536 3364 c-13 -13 -16 -42 -16 -159 0 -175 2 -179 94 -169 100 11
151 43 175 113 31 95 -18 196 -108 221 -55 15 -127 12 -145 -6z m133 -69 c35
-17 41 -32 41 -95 0 -42 -4 -52 -31 -74 -32 -28 -38 -29 -63 -20 -13 5 -16 23
-16 98 0 51 3 96 7 99 10 11 32 8 62 -8z"/>
<path d="M5911 3362 c-57 -28 -75 -63 -79 -147 -4 -63 -1 -80 18 -110 44 -72
145 -95 209 -47 66 49 89 156 49 232 -42 82 -121 111 -197 72z m108 -73 c29
-31 37 -99 17 -137 -43 -83 -126 -48 -126 54 0 85 63 132 109 83z"/>
<path d="M6187 3363 c-15 -18 -17 -38 -15 -169 3 -147 3 -149 26 -152 35 -5
52 15 52 64 0 47 18 68 34 40 53 -88 69 -106 96 -106 42 0 45 26 10 82 -16 27
-30 51 -30 52 0 2 11 15 25 30 36 39 34 95 -3 137 -26 29 -35 32 -103 37 -65
4 -76 2 -92 -15z m130 -61 c22 -14 18 -44 -9 -65 -35 -27 -58 -17 -58 26 0 19
3 37 7 40 9 9 45 9 60 -1z"/>
</g>
</svg>
