<?xml version="1.0" standalone="no"?>
<!DOCTYPE svg PUBLIC "-//W3C//DTD SVG 20010904//EN"
 "http://www.w3.org/TR/2001/REC-SVG-20010904/DTD/svg10.dtd">
<svg version="1.0" xmlns="http://www.w3.org/2000/svg"
 width="1024.000000pt" height="1046.000000pt" viewBox="0 0 1024.000000 1046.000000"
 preserveAspectRatio="xMidYMid meet">

<g transform="translate(0.000000,1046.000000) scale(0.100000,-0.100000)"
fill="#000000" stroke="none">
<path d="M4255 7205 c-138 -19 -210 -41 -320 -97 -75 -38 -100 -52 -120 -62
-26 -15 -167 -126 -182 -146 -19 -23 -11 -61 18 -82 25 -19 28 -19 57 -4 17 9
62 39 99 67 37 28 75 54 83 57 8 3 17 8 20 11 11 13 88 49 140 66 30 10 64 21
75 25 122 45 402 55 560 19 136 -30 266 -92 392 -187 61 -45 77 -53 101 -47
35 7 57 44 48 78 -7 29 -152 140 -248 190 -81 42 -186 73 -201 58 -8 -8 -2
-13 21 -17 36 -7 42 -19 12 -27 -23 -6 -27 -27 -5 -27 8 0 15 -5 15 -11 0 -7
-8 -9 -22 -4 -13 3 -36 10 -53 14 -22 5 -29 13 -28 28 3 25 -31 37 -59 22 -11
-6 -24 -8 -31 -5 -7 2 -5 5 4 5 9 1 22 7 28 15 9 11 -1 15 -59 20 -97 10 -97
24 0 20 44 -1 80 1 80 6 0 23 -290 33 -425 15z m250 -16 c11 -17 3 -19 -92
-30 -75 -8 -94 -7 -119 6 -31 16 -32 15 39 20 15 1 30 5 34 9 11 10 131 7 138
-5z m-55 -59 c0 -5 -21 -9 -47 -9 -43 1 -45 2 -18 9 44 11 65 11 65 0z m-360
-10 c-20 -13 -53 -13 -45 0 3 6 18 10 33 10 21 0 24 -2 12 -10z m-80 -35 c-13
-14 -32 -25 -43 -25 -10 0 -32 -10 -49 -21 -24 -18 -32 -19 -38 -8 -10 16 -4
29 15 29 7 0 35 11 62 25 64 32 84 33 53 0z m10 -40 c0 -8 -7 -15 -15 -15 -9
0 -12 6 -9 15 4 8 10 15 15 15 5 0 9 -7 9 -15z m870 -5 c12 -8 11 -10 -7 -10
-13 0 -23 5 -23 10 0 13 11 13 30 0z m-1015 -20 c3 -5 15 -10 26 -10 10 0 19
5 19 10 0 6 12 10 26 10 22 0 25 -2 14 -15 -7 -8 -17 -15 -22 -15 -5 0 -24
-11 -42 -25 -18 -14 -37 -25 -42 -25 -5 0 -31 -20 -57 -45 -27 -25 -57 -45
-67 -45 -10 0 -23 -7 -28 -16 -14 -25 -47 -13 -50 19 -4 29 6 35 26 15 17 -17
27 -2 12 17 -11 14 -10 17 8 22 12 3 22 12 22 20 0 10 8 12 34 8 22 -5 36 -3
41 6 6 9 1 10 -19 5 -25 -6 -26 -5 -16 14 6 11 17 20 24 20 7 0 21 9 31 20 19
21 50 26 60 10z m1169 1 c3 -5 -3 -11 -14 -14 -20 -5 -26 3 -13 16 9 10 21 9
27 -2z m-101 -8 c-7 -2 -19 -2 -25 0 -7 3 -2 5 12 5 14 0 19 -2 13 -5z m184
-46 c18 -12 33 -27 33 -34 0 -6 6 -13 13 -16 6 -2 9 -7 6 -11 -4 -4 -22 7 -40
24 -19 16 -41 33 -50 35 -10 3 -20 13 -23 21 -8 20 14 13 61 -19z m-67 -12
c20 -24 9 -25 -30 -5 -34 19 -34 19 -9 20 15 0 32 -7 39 -15z m78 -61 c13 -9
29 -13 37 -10 20 7 19 -8 -1 -25 -14 -11 -18 -11 -28 2 -6 8 -19 18 -28 22
-10 3 -18 11 -18 17 0 14 12 13 38 -6z"/>
<path d="M3730 6906 c0 -21 21 -31 31 -15 14 22 11 29 -11 29 -11 0 -20 -6
-20 -14z"/>
<path d="M4695 7170 c8 -13 35 -13 55 0 11 7 5 10 -23 10 -23 0 -36 -4 -32
-10z"/>
<path d="M5762 7117 c-21 -22 -49 -118 -112 -382 -15 -66 -53 -212 -84 -325
-31 -113 -70 -259 -88 -325 -17 -66 -35 -125 -39 -131 -6 -7 -91 -13 -235 -18
-198 -6 -407 -19 -874 -56 -69 -5 -253 -21 -410 -35 -157 -14 -337 -30 -400
-35 -63 -5 -149 -14 -190 -19 -117 -16 -115 -16 -132 32 -14 39 -77 270 -143
527 -15 58 -46 175 -70 260 -24 85 -55 209 -70 275 -23 103 -31 124 -57 148
-25 24 -36 28 -61 23 -17 -4 -41 -16 -54 -28 -35 -33 -34 -42 38 -448 6 -30
14 -80 19 -110 13 -81 37 -212 60 -325 24 -115 55 -296 65 -372 6 -46 4 -54
-12 -58 -89 -27 -161 -94 -180 -168 -15 -53 7 -48 -279 -71 -100 -7 -192 -20
-205 -26 l-23 -13 23 -9 c14 -5 86 -4 170 1 80 6 178 11 216 12 l70 3 2 -95
c3 -127 1 -135 -43 -144 -20 -3 -40 -3 -45 2 -10 10 -207 -3 -261 -17 -20 -6
-40 -15 -43 -20 -8 -13 277 0 294 14 12 9 13 8 8 -7 -28 -75 -20 -104 44 -168
27 -27 47 -53 45 -58 -3 -5 -63 -12 -133 -16 -150 -8 -268 -26 -268 -40 0 -16
161 -17 314 -1 78 8 149 12 158 9 9 -4 30 -22 46 -40 16 -18 35 -33 42 -33 14
0 27 -25 18 -34 -4 -3 -29 -6 -57 -6 -75 -1 -326 -27 -334 -34 -26 -27 83 -28
318 -4 143 14 148 14 183 -20 18 -16 41 -34 52 -40 26 -14 18 -16 -125 -37
-194 -27 -258 -44 -246 -64 3 -3 19 -5 38 -4 47 3 272 32 344 44 70 12 91 5
163 -55 56 -47 177 -103 275 -128 75 -19 89 -20 260 -8 173 11 218 16 401 40
44 5 157 17 250 26 317 28 518 48 805 79 80 9 186 20 235 25 50 5 160 16 245
24 85 9 218 21 295 27 316 24 360 28 424 40 88 17 136 65 133 136 -1 18 0 33
1 34 1 0 31 2 67 5 36 2 88 9 115 14 28 5 85 12 128 16 78 6 99 18 51 30 -27
7 -325 -13 -352 -23 -12 -5 -14 -1 -7 23 4 16 11 47 14 69 l6 40 93 3 c50 1
92 7 92 12 0 6 7 10 16 10 14 0 14 3 4 16 -11 12 -32 15 -95 13 -45 -1 -87 1
-93 5 -10 6 -11 110 0 121 3 3 32 -12 63 -34 32 -23 62 -41 67 -41 29 0 241
-155 259 -190 8 -14 21 -36 31 -49 25 -33 22 -69 -9 -114 -59 -84 -116 -97
-668 -148 -121 -11 -265 -24 -320 -30 -55 -5 -145 -14 -200 -19 -55 -5 -149
-14 -210 -20 -60 -6 -175 -17 -255 -25 -80 -8 -208 -21 -285 -30 -77 -8 -194
-20 -260 -25 -216 -16 -514 -45 -925 -90 -283 -31 -615 -62 -714 -67 -91 -5
-180 8 -246 35 -32 13 -168 98 -180 113 -3 3 -59 50 -125 104 -66 54 -164 139
-218 189 -83 76 -167 138 -167 122 0 -2 8 -21 17 -42 10 -23 17 -68 18 -110 1
-48 7 -80 18 -97 19 -30 7 -44 -22 -25 -28 17 -37 3 -17 -24 43 -61 67 -100
65 -111 -4 -26 45 -128 76 -157 16 -15 25 -35 25 -54 0 -30 15 -105 26 -136 4
-12 7 -11 17 5 6 11 13 35 16 52 l6 33 50 -40 c28 -22 62 -42 77 -46 15 -3 30
-10 33 -15 4 -5 17 -9 29 -9 13 0 29 -7 36 -15 7 -8 20 -15 30 -15 17 0 40
-38 40 -65 0 -16 36 -21 42 -6 3 11 120 17 253 13 l90 -2 17 -40 c9 -22 22
-40 28 -40 6 0 20 20 30 44 l20 43 117 9 c65 4 138 7 163 5 109 -7 195 -5 345
7 88 7 241 15 340 17 232 6 440 22 466 36 12 6 35 9 52 6 17 -2 49 0 71 6 23
5 140 10 261 11 127 0 245 6 280 13 33 7 98 17 145 23 47 6 94 16 106 22 13 6
33 6 55 1 19 -6 47 -6 63 -2 16 5 33 6 37 3 5 -3 44 0 87 6 42 6 125 12 182
14 58 2 125 8 150 14 25 6 72 11 105 11 33 1 69 2 79 4 16 2 22 -8 30 -47 l11
-50 26 31 26 31 10 -27 c9 -24 11 -22 29 39 l20 65 136 5 c87 3 140 9 150 18
13 11 16 3 22 -58 7 -66 20 -97 31 -68 3 7 8 65 12 128 l8 115 64 32 c35 17
78 46 96 63 56 55 59 71 46 252 -6 88 -16 168 -21 178 -25 48 -185 164 -427
314 -25 15 -48 40 -56 59 -30 70 -84 114 -305 246 -57 33 -105 61 -107 61 -3
0 -42 21 -87 46 -76 43 -197 108 -308 166 -25 13 -44 30 -43 38 1 8 9 58 18
110 8 52 34 201 56 330 22 129 60 346 84 482 47 261 48 295 5 318 -33 18 -85
12 -108 -13z m98 -32 c9 -11 9 -27 0 -72 -6 -32 -15 -83 -20 -113 -4 -30 -12
-80 -18 -110 -18 -95 -50 -272 -97 -545 -7 -44 -20 -114 -29 -155 -8 -41 -17
-98 -21 -125 -10 -79 -14 -82 -83 -57 -32 12 -69 22 -81 22 -11 0 -21 4 -21 8
0 10 91 366 125 487 14 50 39 144 55 210 42 165 51 196 61 223 5 13 9 33 9 45
0 13 5 28 11 34 6 6 13 33 15 60 6 74 21 103 54 103 15 0 33 -7 40 -15z
m-3015 -95 c3 -5 12 -38 20 -72 8 -35 23 -94 34 -133 11 -38 37 -140 59 -225
22 -85 55 -209 72 -275 18 -66 54 -202 80 -302 27 -101 51 -187 54 -192 10
-16 -18 -28 -79 -36 -33 -3 -70 -9 -82 -12 -27 -6 -27 -7 -47 117 -17 108 -54
323 -67 390 -5 25 -13 72 -18 105 -5 33 -21 128 -36 210 -14 83 -30 174 -35
203 -10 59 -6 79 18 85 12 3 10 5 -5 6 -27 1 -39 22 -48 82 -6 41 -4 48 16 62
22 16 50 10 64 -13z m2673 -1105 c124 -26 247 -80 482 -213 52 -30 113 -64
135 -77 135 -76 304 -181 328 -203 49 -46 57 -72 57 -187 0 -90 -3 -108 -19
-124 -33 -33 -105 -48 -336 -71 -44 -4 -145 -15 -225 -25 -186 -21 -289 -32
-425 -44 -60 -5 -159 -14 -220 -20 -60 -6 -164 -16 -230 -21 -66 -6 -160 -15
-210 -21 -144 -15 -496 -49 -675 -64 -91 -8 -221 -19 -289 -25 -69 -7 -168
-10 -220 -8 -84 3 -104 8 -161 36 -111 54 -169 90 -267 165 -53 40 -124 92
-158 117 -34 25 -88 68 -120 95 -31 28 -63 54 -71 58 -8 4 -31 23 -51 42 -21
19 -42 35 -46 35 -4 0 -15 17 -23 37 -18 41 -12 144 11 198 50 122 246 166
1015 230 102 8 232 20 290 25 194 18 589 47 940 69 216 14 413 12 488 -4z
m-2728 -594 c0 -13 238 -209 332 -274 41 -29 118 -82 170 -119 53 -38 99 -68
102 -68 4 0 23 -11 44 -24 80 -50 234 -64 467 -41 274 26 359 34 560 50 105 8
237 20 295 25 58 6 155 15 215 20 61 6 118 13 127 16 9 3 75 10 145 15 331 26
510 43 556 54 22 5 166 20 347 35 156 13 319 44 331 63 4 5 14 7 22 4 14 -5
14 -11 2 -51 -34 -113 -59 -123 -385 -161 -277 -32 -837 -89 -1030 -105 -63
-5 -218 -21 -345 -34 -126 -14 -302 -32 -390 -40 -88 -9 -180 -18 -205 -21
-80 -10 -433 -35 -492 -35 -94 0 -209 48 -374 156 -49 33 -93 61 -99 63 -5 2
-12 7 -15 11 -3 3 -30 25 -60 49 -59 45 -91 72 -155 126 -22 19 -45 35 -50 35
-6 0 -38 27 -71 59 -47 46 -62 68 -67 97 -11 67 -8 104 8 104 8 0 15 -4 15 -9z"/>
<path d="M5700 5250 c0 -11 7 -20 15 -20 8 0 15 6 15 14 0 8 -7 16 -15 20 -10
4 -15 -1 -15 -14z"/>
<path d="M5600 5250 c0 -5 5 -10 10 -10 6 0 10 5 10 10 0 6 -4 10 -10 10 -5 0
-10 -4 -10 -10z"/>
<path d="M5310 5224 c0 -8 5 -12 10 -9 6 3 10 10 10 16 0 5 -4 9 -10 9 -5 0
-10 -7 -10 -16z"/>
<path d="M5407 5221 c-3 -14 0 -17 14 -14 22 6 26 33 5 33 -7 0 -16 -8 -19
-19z"/>
<path d="M5110 5200 c0 -13 5 -20 13 -17 6 2 12 10 12 17 0 7 -6 15 -12 18 -8
2 -13 -5 -13 -18z"/>
<path d="M5000 5196 c0 -8 5 -18 10 -21 6 -3 10 3 10 14 0 12 -4 21 -10 21 -5
0 -10 -6 -10 -14z"/>
<path d="M4505 5130 c-3 -5 -1 -10 4 -10 6 0 11 5 11 10 0 6 -2 10 -4 10 -3 0
-8 -4 -11 -10z"/>
<path d="M4735 7120 c3 -5 10 -10 16 -10 5 0 9 5 9 10 0 6 -7 10 -16 10 -8 0
-12 -4 -9 -10z"/>
<path d="M4330 6900 c-14 -4 -59 -15 -100 -25 -41 -9 -84 -20 -95 -24 -92 -38
-116 -50 -166 -82 -88 -58 -121 -94 -117 -131 2 -23 11 -37 29 -47 32 -18 66
-6 119 40 38 32 150 90 221 112 137 45 278 44 451 -1 37 -10 128 -58 183 -97
61 -43 83 -50 110 -35 64 34 1 124 -137 194 -39 20 -76 36 -83 36 -6 0 -29 9
-52 20 -85 41 -291 64 -363 40z m25 -50 c-38 -3 -79 -11 -90 -17 -29 -15 -51
-5 -28 13 12 9 45 13 103 12 l85 -1 -70 -7z m325 -31 c0 -14 -17 -10 -23 5 -4
10 -1 13 9 9 7 -3 14 -9 14 -14z m-510 2 c0 -5 46 -8 101 -6 78 2 97 0 83 -9
-11 -6 -62 -11 -114 -11 -52 -1 -105 -4 -117 -9 -33 -11 -29 10 5 28 32 18 42
19 42 7z m333 -2 c-8 -8 -25 -9 -60 -1 l-48 10 60 1 c43 1 56 -2 48 -10z m279
-23 c10 -7 15 -16 11 -19 -7 -8 -83 -10 -83 -3 0 35 40 47 72 22z m-566 -29
c4 -4 -5 -7 -20 -7 -15 0 -25 4 -22 9 7 10 31 9 42 -2z m-56 -17 c0 -5 -2 -10
-4 -10 -3 0 -8 5 -11 10 -3 6 -1 10 4 10 6 0 11 -4 11 -10z m700 -56 c0 -2 -7
-4 -15 -4 -8 0 -15 4 -15 10 0 5 7 7 15 4 8 -4 15 -8 15 -10z m90 -36 c0 -12
-1 -19 -3 -17 -1 2 -9 12 -16 22 -12 14 -11 17 3 17 10 0 16 -8 16 -22z"/>
<path d="M4377 6592 c-75 -4 -72 -25 4 -33 l54 -6 -63 -1 c-37 -1 -61 2 -57 7
21 35 -112 -2 -183 -51 -68 -47 -80 -118 -23 -139 37 -15 73 -5 124 34 115 88
293 84 414 -9 38 -29 90 -32 109 -6 7 9 14 31 14 49 0 25 -8 38 -42 65 -88 70
-197 98 -351 90z m126 -39 c-7 -2 -21 -2 -30 0 -10 3 -4 5 12 5 17 0 24 -2 18
-5z m-193 -17 c0 -9 -30 -14 -35 -6 -4 6 3 10 14 10 12 0 21 -2 21 -4z m143
-23 c-18 -2 -48 -2 -65 0 -18 2 -4 4 32 4 36 0 50 -2 33 -4z"/>
<path d="M4374 6276 c-53 -24 -77 -63 -71 -119 6 -72 44 -107 113 -107 46 0
57 4 88 34 32 29 36 39 36 83 0 43 -4 53 -33 81 -39 38 -88 48 -133 28z m136
-120 c0 -8 -4 -18 -10 -21 -5 -3 -10 3 -10 14 0 12 5 21 10 21 6 0 10 -6 10
-14z"/>
<path d="M2648 5345 c-3 -3 -61 -8 -129 -11 -68 -3 -142 -10 -164 -16 l-40
-11 40 -9 c34 -8 82 -7 232 7 13 1 26 5 30 8 3 4 19 7 36 7 18 0 27 5 25 12
-5 14 -22 21 -30 13z"/>
<path d="M6683 4733 c15 -2 37 -2 50 0 12 2 0 4 -28 4 -27 0 -38 -2 -22 -4z"/>
<path d="M3150 4534 c-14 -7 -36 -14 -50 -14 -41 0 -70 -11 -70 -26 0 -17 65
-20 75 -3 4 6 24 10 44 8 94 -5 116 8 61 36 -16 8 -30 15 -32 14 -2 -1 -14 -7
-28 -15z"/>
<path d="M2958 4413 c7 -3 16 -2 19 1 4 3 -2 6 -13 5 -11 0 -14 -3 -6 -6z"/>
<path d="M2802 3694 c-21 -14 -22 -22 -22 -153 0 -141 5 -161 41 -161 23 0 32
16 39 68 3 23 10 43 15 44 6 0 24 -23 41 -52 36 -61 55 -75 84 -60 27 14 25
38 -5 82 -30 45 -31 59 -5 83 17 15 20 29 18 69 -3 45 -7 53 -37 73 -41 28
-134 32 -169 7z m132 -76 c13 -22 -19 -60 -48 -56 -16 2 -22 12 -24 41 -3 38
-3 38 29 35 18 -2 37 -11 43 -20z"/>
<path d="M3130 3692 c-103 -56 -109 -247 -10 -300 36 -18 130 -11 162 13 55
42 76 148 42 217 -37 76 -125 108 -194 70z m100 -62 c27 -14 42 -76 30 -121
-11 -41 -24 -55 -60 -64 -51 -12 -89 63 -70 135 15 55 55 74 100 50z"/>
<path d="M3408 3701 c-26 -4 -51 -10 -55 -14 -14 -15 14 -42 48 -47 l34 -5 5
-119 c5 -124 15 -148 54 -133 13 5 16 24 16 116 0 123 4 141 32 141 28 0 58
18 58 35 0 33 -73 42 -192 26z"/>
<path d="M3640 3695 c-15 -19 -14 -283 2 -302 7 -8 36 -13 83 -13 85 0 105 6
105 29 0 28 -22 41 -71 41 -34 0 -49 4 -53 16 -10 27 10 48 49 50 76 2 72 56
-4 62 -77 6 -63 59 17 64 37 2 48 7 50 22 6 31 -26 46 -99 46 -46 0 -70 -4
-79 -15z"/>
<path d="M3957 3698 c-9 -7 -38 -76 -65 -154 -38 -111 -45 -143 -35 -152 22
-21 43 -13 64 23 19 32 25 35 65 35 41 0 47 -3 66 -36 15 -25 26 -34 42 -32
34 5 32 56 -9 166 -56 154 -82 184 -128 150z m53 -134 c14 -40 4 -58 -26 -52
-14 3 -18 12 -17 33 5 65 25 74 43 19z"/>
<path d="M4178 3699 c-16 -9 -18 -27 -18 -145 0 -74 5 -144 10 -155 16 -30
102 -26 168 7 69 34 86 67 79 150 -5 73 -29 113 -81 138 -38 18 -131 21 -158
5z m117 -65 c22 -9 45 -57 45 -96 0 -54 -48 -106 -84 -92 -13 5 -16 24 -16
100 0 86 2 94 19 94 11 0 27 -3 36 -6z"/>
<path d="M4535 3696 c-67 -30 -102 -114 -82 -201 40 -173 258 -156 281 23 11
81 -18 148 -77 176 -42 19 -81 20 -122 2z m95 -67 c21 -18 24 -29 25 -79 0
-67 -21 -100 -65 -100 -71 0 -91 133 -27 182 28 22 37 22 67 -3z"/>
<path d="M4786 3694 c-13 -12 -16 -41 -16 -145 0 -137 8 -169 41 -169 22 0 39
35 39 81 0 45 26 36 61 -21 18 -30 40 -52 54 -56 51 -13 59 22 20 80 -30 44
-31 56 -5 78 44 39 35 108 -20 146 -41 28 -149 32 -174 6z m139 -78 c8 -14 5
-21 -14 -37 -13 -11 -31 -18 -40 -17 -20 4 -28 68 -10 79 16 10 50 -4 64 -25z"/>
<path d="M5180 3695 c-10 -12 -10 -24 -2 -53 6 -20 23 -82 37 -136 28 -110 37
-126 71 -126 29 0 35 10 54 89 9 36 21 66 26 68 5 2 15 -23 22 -54 6 -32 19
-68 27 -81 18 -24 57 -29 72 -9 30 37 79 282 62 303 -30 36 -64 -2 -75 -83 -3
-29 -12 -61 -19 -70 -12 -16 -14 -15 -19 12 -4 17 -14 55 -24 85 -14 44 -22
56 -41 58 -33 5 -42 -8 -60 -82 -9 -36 -20 -67 -26 -68 -5 -2 -15 26 -22 61
-18 88 -52 123 -83 86z"/>
<path d="M5605 3694 c-13 -13 -15 -39 -13 -162 l3 -147 30 0 c30 0 30 0 36 70
13 138 10 222 -7 239 -20 20 -29 20 -49 0z"/>
<path d="M5906 3697 c-16 -12 -18 -29 -17 -153 2 -108 5 -142 17 -154 20 -21
48 -1 52 36 6 66 10 71 53 77 51 7 68 21 53 45 -6 9 -20 18 -30 20 -60 9 -65
12 -62 40 3 24 8 27 52 32 56 6 79 28 57 54 -17 20 -148 23 -175 3z"/>
<path d="M6134 3697 c-2 -7 -3 -80 -2 -162 3 -139 4 -150 22 -153 37 -8 46 24
46 161 0 70 -5 137 -10 148 -12 22 -48 26 -56 6z"/>
<path d="M5765 3540 c-45 -4 -50 -7 -50 -30 0 -23 4 -25 56 -28 67 -3 90 13
62 45 -15 15 -27 18 -68 13z"/>
</g>
</svg>
