<?xml version="1.0" standalone="no"?>
<!DOCTYPE svg PUBLIC "-//W3C//DTD SVG 20010904//EN"
 "http://www.w3.org/TR/2001/REC-SVG-20010904/DTD/svg10.dtd">
<svg version="1.0" xmlns="http://www.w3.org/2000/svg"
 width="1024.000000pt" height="1046.000000pt" viewBox="0 0 1024.000000 1046.000000"
 preserveAspectRatio="xMidYMid meet">

<g transform="translate(0.000000,1046.000000) scale(0.100000,-0.100000)"
fill="#000000" stroke="none">
<path d="M6075 6815 c-72 -11 -111 -28 -380 -164 -165 -83 -361 -183 -435
-222 -74 -39 -173 -91 -220 -115 -47 -24 -119 -62 -160 -85 -41 -22 -163 -86
-270 -141 -107 -55 -238 -124 -290 -153 -52 -29 -126 -69 -164 -90 -38 -21
-95 -62 -127 -91 -33 -30 -66 -54 -74 -54 -20 0 -199 -90 -258 -129 -24 -17
-49 -31 -53 -31 -17 0 -104 -82 -133 -123 -33 -50 -51 -99 -66 -187 l-10 -64
-58 -33 c-32 -18 -158 -84 -280 -146 -122 -63 -251 -130 -287 -149 -36 -20
-101 -54 -145 -78 -123 -65 -115 -48 -122 -261 -5 -157 -3 -190 11 -223 11
-27 13 -43 6 -50 -17 -17 -11 -54 12 -75 25 -24 46 -17 25 7 -17 21 -28 62
-16 62 18 0 179 -98 179 -109 0 -5 -10 -6 -23 -4 -13 3 -33 -3 -46 -14 l-24
-20 29 -26 c16 -15 34 -27 41 -27 6 0 13 -3 15 -7 3 -8 30 -23 203 -111 50
-25 91 -49 93 -53 2 -5 62 -38 134 -74 72 -36 140 -72 152 -80 11 -8 28 -15
38 -15 9 0 43 -13 75 -30 34 -18 73 -30 96 -30 37 0 38 1 35 33 -2 22 -8 32
-20 32 -9 0 -20 4 -24 8 -4 4 4 7 18 7 13 0 28 3 32 7 4 4 25 13 46 19 33 10
42 9 52 -3 6 -8 21 -12 32 -9 32 8 46 -10 33 -43 -9 -25 -18 -30 -71 -38 l-61
-10 63 -2 c35 0 62 3 62 9 0 6 10 10 23 10 28 0 231 99 266 129 13 12 42 26
63 33 21 6 38 15 38 20 0 4 6 8 13 8 6 0 32 14 57 30 25 17 74 44 109 61 35
16 89 44 120 63 83 48 101 50 187 22 101 -34 226 -43 324 -22 41 9 84 16 94
16 11 0 44 12 75 27 56 28 56 28 23 31 -18 2 -46 -4 -63 -12 -16 -8 -37 -12
-45 -9 -27 10 -14 32 25 43 21 5 42 17 45 26 5 13 -1 14 -42 9 l-47 -7 30 26
c17 14 37 25 46 26 8 0 31 12 50 26 43 32 108 64 130 64 10 0 19 4 21 8 6 16
76 62 93 62 28 0 -53 -67 -90 -74 -17 -3 -38 -15 -47 -25 -9 -10 -22 -21 -29
-23 -31 -11 4 -20 55 -14 34 5 63 15 79 29 39 35 84 56 95 45 6 -6 12 -6 16 1
4 6 18 11 30 11 17 0 27 9 36 30 7 18 20 30 31 30 30 0 29 -15 -1 -35 -16 -11
-33 -30 -39 -42 -9 -21 -28 -29 -55 -24 -9 2 -26 -18 -26 -31 0 -5 9 -8 20 -8
11 0 20 7 20 15 0 8 9 15 20 15 11 0 29 9 40 20 11 11 31 20 44 20 14 0 28 5
31 10 4 6 24 18 46 27 21 8 39 19 39 24 0 5 8 9 19 9 10 0 24 6 30 14 6 8 26
20 44 27 18 6 46 23 64 35 17 13 58 38 90 55 32 17 63 37 68 43 11 14 155 86
170 86 6 0 22 11 37 25 15 14 32 25 38 25 5 0 10 5 10 10 0 6 -14 10 -30 10
-27 0 -30 3 -25 23 4 15 1 28 -9 36 -9 8 -16 17 -16 22 0 12 57 11 65 -1 4 -6
11 -7 17 -4 7 4 6 9 -2 14 -15 9 -1 38 35 74 14 14 25 30 25 36 0 14 -53 13
-67 -1 -9 -9 -10 -7 -6 10 3 11 12 21 19 21 8 0 14 4 14 10 0 5 12 13 28 16
15 4 36 14 47 24 11 9 59 36 106 59 48 23 96 51 107 62 12 10 28 19 37 19 9 0
21 5 28 10 25 22 88 60 98 60 26 0 -65 -73 -124 -100 -36 -16 -68 -34 -71 -39
-5 -8 -37 -26 -118 -68 -16 -8 -28 -20 -28 -28 0 -7 -9 -15 -21 -18 -26 -7
-20 -31 9 -35 16 -3 19 1 15 17 -4 16 1 22 23 27 16 3 62 20 102 36 40 17 75
28 78 25 3 -3 -4 -15 -16 -27 -20 -20 -21 -23 -6 -38 15 -15 18 -14 42 11 25
28 39 33 48 19 6 -11 -6 -27 -26 -35 -9 -3 -22 -15 -28 -26 -17 -33 19 -27 79
14 28 19 53 35 55 35 3 0 41 23 86 50 45 28 88 50 95 50 8 0 16 4 19 9 4 5 36
26 72 46 36 20 68 43 71 51 3 8 14 14 24 14 10 0 28 9 39 20 l20 20 -25 0
c-20 0 -25 5 -25 25 0 15 6 25 15 25 40 0 33 80 -9 88 -15 3 -17 -2 -14 -29 2
-26 -1 -34 -14 -37 -14 -3 -18 3 -18 28 0 30 -2 32 -26 26 -14 -4 -43 -18 -65
-31 -21 -14 -45 -25 -54 -25 -28 0 -15 18 29 40 24 11 47 27 50 35 3 8 14 15
25 15 11 0 21 3 23 8 2 4 28 23 58 42 30 19 72 50 93 69 50 45 107 132 107
163 0 14 7 47 15 74 20 65 38 290 31 384 -13 170 -95 294 -241 360 -33 15 -98
45 -145 67 -138 65 -546 241 -631 272 -57 21 -171 52 -185 50 -5 -1 -45 -7
-89 -14z m166 -90 l34 -14 -35 -1 c-20 0 -40 4 -46 10 -34 34 -257 -56 -565
-227 -129 -71 -387 -199 -449 -223 -19 -7 -42 -19 -51 -27 -8 -7 -18 -13 -22
-13 -4 0 -46 -23 -94 -52 -48 -28 -182 -99 -298 -158 -178 -91 -386 -199 -485
-252 -99 -52 -173 -139 -205 -240 l-13 -43 -1 51 c-2 85 39 152 135 218 36 25
66 46 68 46 2 0 43 24 92 53 49 29 114 63 144 76 64 27 283 141 421 218 19 12
73 37 120 58 135 59 152 67 184 89 16 12 55 34 85 50 250 131 388 204 465 242
50 25 135 70 190 99 l100 54 96 1 c64 0 108 -5 130 -15z m165 -63 c-10 -2 -22
0 -28 6 -6 6 0 7 19 4 21 -5 23 -7 9 -10z m99 -42 c8 -13 -5 -13 -25 0 -13 8
-13 10 2 10 9 0 20 -4 23 -10z m68 -27 c-7 -2 -19 -2 -25 0 -7 3 -2 5 12 5 14
0 19 -2 13 -5z m114 -49 c-3 -3 -12 -4 -19 -1 -8 3 -5 6 6 6 11 1 17 -2 13 -5z
m60 -20 c-3 -3 -12 -4 -19 -1 -8 3 -5 6 6 6 11 1 17 -2 13 -5z m38 -24 c3 -5
1 -10 -4 -10 -6 0 -11 5 -11 10 0 6 2 10 4 10 3 0 8 -4 11 -10z m112 -46 c-3
-3 -12 -4 -19 -1 -8 3 -5 6 6 6 11 1 17 -2 13 -5z m67 -29 c11 -8 28 -15 38
-15 10 0 18 -4 18 -10 0 -5 9 -10 21 -10 11 0 17 -4 14 -11 -5 -7 -15 -5 -31
5 -13 9 -32 16 -44 16 -11 0 -20 5 -20 10 0 6 -9 10 -19 10 -11 0 -23 5 -26
10 -9 15 27 11 49 -5z m-2219 -774 c38 -8 36 -9 -24 -10 -63 -1 -232 -46 -239
-63 -2 -4 -8 -8 -14 -8 -10 0 -77 -48 -91 -65 -5 -6 -7 -2 -5 10 5 30 109 108
169 127 59 18 141 22 204 9z m-805 -51 c0 -15 -48 -43 -61 -35 -7 5 -1 14 18
26 31 21 43 24 43 9z m-95 -50 c-3 -5 -13 -10 -21 -10 -8 0 -14 -4 -14 -9 0
-5 -16 -15 -35 -21 -19 -6 -35 -15 -35 -19 0 -4 -22 -23 -50 -42 -33 -22 -51
-43 -56 -61 -6 -29 -36 -39 -50 -16 -9 14 77 95 132 123 21 11 41 22 44 25 10
11 66 38 78 39 7 1 10 -3 7 -9z m3195 -336 c0 -2 -9 -4 -21 -4 -11 0 -18 4
-14 10 5 8 35 3 35 -6z m70 -45 c0 -4 -19 -14 -42 -21 -24 -7 -51 -23 -61 -35
-23 -28 -57 -31 -57 -4 0 10 -7 24 -15 31 -8 7 -12 16 -9 21 8 14 24 10 24 -6
0 -24 55 -18 84 9 25 22 76 26 76 5z m-320 2 c0 -5 -9 -11 -20 -14 -22 -6 -28
8 -7 16 19 8 27 8 27 -2z m-3167 -25 c18 -7 67 -28 110 -46 43 -19 88 -41 100
-50 12 -9 49 -31 82 -50 116 -64 130 -73 172 -101 23 -16 46 -29 51 -29 5 0
20 -9 33 -19 14 -10 57 -36 97 -58 39 -21 86 -46 104 -55 18 -10 49 -18 68
-18 42 0 65 -13 57 -32 -4 -12 -102 -71 -252 -153 -11 -7 -74 -42 -140 -80
-129 -73 -162 -92 -270 -150 -38 -21 -74 -41 -80 -45 -9 -7 -90 -53 -125 -71
-8 -4 -23 -10 -33 -13 -26 -8 -33 -37 -12 -52 16 -12 18 -30 17 -160 0 -148
-6 -172 -37 -160 -15 5 -16 26 -14 172 l3 166 -51 32 c-27 17 -127 74 -222
126 -310 171 -535 298 -570 320 -19 11 -46 20 -60 18 -20 -2 -26 1 -26 17 0
14 15 28 50 46 28 14 75 39 105 56 56 31 252 132 593 307 103 53 195 96 203
96 9 0 30 -6 47 -14z m3143 -75 c-8 -13 -36 -15 -36 -3 0 4 5 13 12 20 14 14
34 0 24 -17z m61 -47 c-3 -3 -12 -4 -19 -1 -8 3 -5 6 6 6 11 1 17 -2 13 -5z
m-67 -29 c0 -8 -2 -15 -4 -15 -2 0 -6 7 -10 15 -3 8 -1 15 4 15 6 0 10 -7 10
-15z m-27 -42 c-7 -2 -19 -2 -25 0 -7 3 -2 5 12 5 14 0 19 -2 13 -5z m-533
-128 c0 -9 -9 -15 -21 -15 -18 0 -19 2 -9 15 7 8 16 15 21 15 5 0 9 -7 9 -15z
m-55 -34 c-7 -13 -75 -35 -82 -27 -4 3 -1 6 6 6 7 0 19 7 27 15 17 16 59 21
49 6z m-1366 -35 c9 -10 9 -16 1 -21 -17 -11 -60 4 -60 20 0 19 44 20 59 1z
m1188 -62 c-3 -3 -12 -4 -19 -1 -8 3 -5 6 6 6 11 1 17 -2 13 -5z m-1467 -100
c0 -8 -5 -12 -10 -9 -6 4 -8 11 -5 16 9 14 15 11 15 -7z m-170 -88 c0 -2 -7
-6 -15 -10 -8 -3 -15 -1 -15 4 0 6 7 10 15 10 8 0 15 -2 15 -4z m-40 -26 c0
-5 -8 -10 -17 -10 -15 0 -16 2 -3 10 19 12 20 12 20 0z m-59 -40 c-24 -21 -41
-26 -41 -12 0 15 24 32 45 32 19 -1 19 -1 -4 -20z m-61 -30 c0 -5 -10 -10 -22
-10 -19 0 -20 2 -8 10 19 13 30 13 30 0z m1377 -6 c-3 -3 -12 -4 -19 -1 -8 3
-5 6 6 6 11 1 17 -2 13 -5z m-1051 -62 c-12 -11 -17 7 -9 34 l8 29 3 -28 c2
-16 1 -31 -2 -35z m-371 38 c-3 -5 -15 -10 -26 -10 -10 0 -19 5 -19 10 0 6 12
10 26 10 14 0 23 -4 19 -10z m-58 -35 c-4 -8 -18 -15 -32 -15 -14 0 -25 -6
-25 -13 0 -7 -26 -26 -57 -42 -32 -16 -75 -39 -95 -52 -21 -13 -45 -23 -53
-23 -9 0 -19 -10 -24 -23 -6 -15 -23 -26 -55 -35 -25 -6 -46 -16 -46 -22 0 -5
-13 -10 -30 -10 -40 0 -38 14 6 36 20 11 44 23 55 29 10 5 19 13 19 17 0 5 7
8 15 8 9 0 26 6 38 14 48 31 113 68 140 79 15 6 27 15 27 19 0 4 8 8 19 8 10
0 29 8 42 19 42 32 67 35 56 6z m1360 -11 c-3 -3 -12 -4 -19 -1 -8 3 -5 6 6 6
11 1 17 -2 13 -5z m-997 -33 c0 -12 -58 -41 -79 -40 -10 0 -8 4 7 10 13 5 30
16 38 24 17 17 34 20 34 6z m-1643 -91 c31 -16 33 -20 15 -20 -12 0 -22 5 -22
10 0 6 -6 10 -14 10 -8 0 -18 5 -21 10 -9 15 1 12 42 -10z m1470 -16 c-3 -3
-12 -4 -19 -1 -8 3 -5 6 6 6 11 1 17 -2 13 -5z m-1402 -24 c3 -5 2 -10 -4 -10
-5 0 -13 5 -16 10 -3 6 -2 10 4 10 5 0 13 -4 16 -10z m1609 -7 c20 -10 36 -20
36 -23 0 -3 -29 -5 -65 -5 -36 0 -65 2 -65 4 0 11 34 41 46 41 7 0 29 -8 48
-17z m-1567 -19 c-3 -3 -12 -4 -19 -1 -8 3 -5 6 6 6 11 1 17 -2 13 -5z m53
-24 c0 -5 6 -10 14 -10 7 0 35 -12 62 -26 129 -68 149 -79 154 -84 3 -3 30
-18 60 -34 30 -16 57 -32 60 -35 3 -3 23 -15 45 -26 22 -10 52 -27 67 -37 14
-10 32 -18 40 -18 7 0 21 -9 31 -20 23 -27 18 -26 -71 17 -67 32 -108 55 -197
110 -11 7 -58 31 -105 54 -47 23 -105 56 -130 73 -24 17 -51 34 -60 38 -11 5
-9 7 8 7 12 1 22 -3 22 -9z m1630 -6 c22 -9 40 -20 40 -25 0 -5 18 -9 40 -9
42 0 46 -5 30 -30 -8 -13 -10 -13 -10 1 0 13 -14 18 -60 23 -43 5 -68 14 -88
31 -33 30 -14 33 48 9z m422 -26 c-6 -6 -19 -7 -29 -3 -17 7 -17 8 2 15 24 9
41 2 27 -12z m-2172 -11 c10 -4 8 -6 -7 -6 -16 -1 -23 5 -23 17 0 10 3 13 8 6
4 -6 14 -14 22 -17z m890 8 c0 -8 -4 -15 -10 -15 -5 0 -10 7 -10 15 0 8 5 15
10 15 6 0 10 -7 10 -15z m307 -11 c-3 -3 -12 -4 -19 -1 -8 3 -5 6 6 6 11 1 17
-2 13 -5z m-352 -24 c-3 -5 -12 -10 -20 -10 -8 0 -17 5 -20 10 -4 6 5 10 20
10 15 0 24 -4 20 -10z m295 -14 c0 -2 -7 -6 -15 -10 -8 -3 -15 -1 -15 4 0 6 7
10 15 10 8 0 15 -2 15 -4z m-1035 -16 c-3 -5 -12 -7 -20 -3 -21 7 -19 13 6 13
11 0 18 -4 14 -10z m995 -8 c0 -11 -58 -34 -72 -29 -8 3 -5 6 5 6 10 1 25 8
33 16 16 16 34 20 34 7z m-950 -23 c0 -11 -4 -17 -10 -14 -5 3 -10 13 -10 21
0 8 5 14 10 14 6 0 10 -9 10 -21z m860 -29 c0 -5 -9 -10 -19 -10 -11 0 -21 -3
-23 -7 -6 -15 -67 -43 -72 -35 -3 5 16 20 42 34 52 28 72 33 72 18z m-793 -6
c-3 -3 -12 -4 -19 -1 -8 3 -5 6 6 6 11 1 17 -2 13 -5z m1006 -1 c-7 -2 -19 -2
-25 0 -7 3 -2 5 12 5 14 0 19 -2 13 -5z m-948 -33 c15 -16 15 -20 3 -20 -8 0
-23 9 -33 20 -15 16 -15 20 -3 20 8 0 23 -9 33 -20z m905 10 c0 -5 -7 -10 -15
-10 -8 0 -15 5 -15 10 0 6 7 10 15 10 8 0 15 -4 15 -10z m-70 -40 c0 -5 -10
-10 -22 -10 -19 0 -20 2 -8 10 19 13 30 13 30 0z m-715 -30 c4 -6 -5 -10 -19
-10 -14 0 -26 5 -26 10 0 6 9 10 19 10 11 0 23 -4 26 -10z m655 0 c0 -5 -8
-10 -17 -10 -15 0 -16 2 -3 10 19 12 20 12 20 0z m-607 -27 c-7 -2 -19 -2 -25
0 -7 3 -2 5 12 5 14 0 19 -2 13 -5z m564 1 c-3 -3 -12 -4 -19 -1 -8 3 -5 6 6
6 11 1 17 -2 13 -5z m-477 -54 c0 -5 -2 -10 -4 -10 -3 0 -8 5 -11 10 -3 6 -1
10 4 10 6 0 11 -4 11 -10z m37 -16 c-3 -3 -12 -4 -19 -1 -8 3 -5 6 6 6 11 1
17 -2 13 -5z m328 -4 c-3 -5 -10 -10 -16 -10 -5 0 -9 5 -9 10 0 6 7 10 16 10
8 0 12 -4 9 -10z m-260 -26 c14 -9 22 -20 19 -25 -6 -10 -25 -1 -59 25 -18 14
-18 15 -2 16 10 0 29 -7 42 -16z m85 -89 c0 -8 -6 -15 -14 -15 -17 0 -28 14
-19 24 12 12 33 6 33 -9z"/>
<path d="M3270 4903 c-8 -3 -31 -15 -50 -27 -19 -11 -50 -26 -70 -31 -61 -18
-50 -38 54 -94 52 -28 105 -51 117 -51 12 0 47 15 78 33 31 17 65 37 76 42 24
12 26 35 5 46 -8 4 -48 26 -88 48 -72 40 -91 45 -122 34z"/>
<path d="M3730 4640 c-30 -17 -70 -38 -88 -47 -49 -25 -39 -48 43 -94 140 -79
129 -76 177 -50 161 86 162 92 33 168 -49 29 -94 53 -100 53 -5 0 -35 -14 -65
-30z"/>
<path d="M7347 5593 c-14 -13 -6 -21 33 -37 56 -22 59 -20 20 14 -37 31 -43
34 -53 23z"/>
<path d="M7462 5440 c0 -19 2 -27 5 -17 2 9 2 25 0 35 -3 9 -5 1 -5 -18z"/>
<path d="M7247 5420 c-3 -11 -1 -20 4 -20 5 0 9 9 9 20 0 11 -2 20 -4 20 -2 0
-6 -9 -9 -20z"/>
<path d="M7307 5375 c-7 -16 8 -29 23 -20 15 9 12 35 -4 35 -8 0 -16 -7 -19
-15z"/>
<path d="M7130 5360 c-11 -7 -5 -10 23 -10 20 0 37 5 37 10 0 13 -40 13 -60 0z"/>
<path d="M7375 5340 c-3 -5 3 -10 14 -10 12 0 21 5 21 10 0 6 -6 10 -14 10 -8
0 -18 -4 -21 -10z"/>
<path d="M7075 5330 c4 -6 11 -8 16 -5 14 9 11 15 -7 15 -8 0 -12 -5 -9 -10z"/>
<path d="M7195 5222 c-5 -4 -11 -12 -12 -19 -2 -8 5 -8 27 0 17 6 30 15 30 19
0 10 -32 10 -45 0z"/>
<path d="M6495 4890 c-8 -12 20 -24 35 -15 5 3 10 10 10 16 0 12 -37 12 -45
-1z"/>
<path d="M6326 4795 c-10 -8 -15 -18 -12 -23 8 -14 46 -3 46 14 0 20 -13 24
-34 9z"/>
<path d="M6285 4680 c-23 -26 -4 -26 26 0 18 15 20 19 8 20 -9 0 -24 -9 -34
-20z"/>
<path d="M5314 4165 c-15 -13 -37 -25 -49 -27 -12 -2 -21 -12 -23 -25 -2 -15
-14 -24 -40 -31 l-37 -10 38 -1 c20 -1 37 4 37 9 0 6 4 10 8 10 16 0 166 90
152 91 -8 0 -25 2 -36 4 -13 3 -33 -5 -50 -20z"/>
<path d="M5151 4151 c-8 -5 -9 -11 -3 -15 13 -8 42 3 42 15 0 11 -21 11 -39 0z"/>
<path d="M6866 4124 c-8 -29 -1 -44 20 -44 23 0 16 -26 -13 -46 -15 -9 -41
-21 -58 -25 -28 -6 -26 -7 13 -8 33 -1 54 6 83 27 43 30 48 46 20 62 -11 5
-22 19 -26 29 -9 30 -32 33 -39 5z"/>
<path d="M6272 4038 c5 -37 90 -61 231 -66 65 -2 144 -1 175 4 l57 7 -45 9
c-25 5 -67 8 -95 6 -157 -6 -240 6 -170 26 11 3 -10 4 -46 1 -56 -3 -67 -1
-79 16 -19 26 -32 24 -28 -3z"/>
<path d="M3617 3688 c-8 -29 -2 -34 28 -20 32 15 33 42 1 42 -16 0 -26 -7 -29
-22z"/>
<path d="M3992 2843 c-13 -3 -27 -16 -33 -31 -14 -37 -5 -368 11 -387 10 -11
37 -15 116 -15 113 0 141 12 128 54 -9 30 -7 29 -82 35 -65 6 -67 7 -70 35 -5
38 10 50 58 48 46 -3 84 26 73 55 -10 26 -23 33 -70 33 -34 0 -46 5 -58 24
-12 18 -13 53 -1 56 0 1 28 3 61 6 33 3 66 7 73 9 16 6 15 50 -1 64 -15 11
-166 22 -205 14z"/>
<path d="M4539 2829 c-16 -16 -19 -34 -19 -113 0 -74 -3 -95 -15 -100 -8 -3
-15 -1 -15 4 0 12 -129 203 -144 212 -23 15 -56 8 -72 -17 -13 -20 -15 -52
-13 -195 3 -183 10 -210 53 -210 39 0 46 18 46 123 0 74 3 98 13 95 6 -3 41
-48 77 -102 81 -120 101 -134 143 -103 15 11 19 37 23 187 3 105 1 186 -5 201
-13 35 -47 43 -72 18z"/>
<path d="M4891 2831 c-22 -22 -22 -28 -19 -207 4 -224 0 -218 123 -212 130 7
195 55 218 163 8 42 8 69 -1 112 -21 100 -93 152 -222 160 -70 5 -79 4 -99
-16z m186 -99 c28 -21 48 -96 39 -144 -8 -44 -47 -84 -88 -94 -48 -10 -59 13
-57 116 2 135 4 140 47 140 20 0 47 -8 59 -18z"/>
<path d="M6094 2836 c-12 -9 -29 -41 -38 -73 -10 -32 -23 -76 -31 -98 -7 -22
-16 -52 -19 -67 -4 -16 -10 -28 -15 -28 -17 0 -29 26 -61 130 -36 115 -51 140
-85 140 -39 0 -45 -44 -19 -125 9 -27 25 -77 36 -110 48 -150 60 -176 90 -191
65 -34 93 3 157 200 56 175 61 210 32 226 -25 13 -23 13 -47 -4z"/>
<path d="M6238 2836 c-19 -10 -24 -23 -31 -81 -4 -39 -7 -125 -5 -193 4 -153
3 -152 136 -152 104 0 132 9 132 45 0 31 -12 38 -63 36 -23 0 -54 2 -69 5 -24
5 -28 11 -28 39 0 41 20 55 77 55 42 0 63 14 63 41 0 27 -39 49 -86 49 -46 0
-69 18 -60 48 5 16 20 21 74 27 72 7 92 17 92 45 0 10 -6 22 -12 28 -19 15
-193 21 -220 8z"/>
<path d="M3627 2822 c-14 -16 -17 -44 -17 -185 0 -170 6 -210 35 -221 32 -12
55 12 55 57 0 60 21 86 68 85 82 -1 142 55 142 134 0 61 -19 100 -63 127 -47
29 -195 31 -220 3z m171 -90 c24 -31 8 -73 -38 -97 -27 -14 -30 -14 -40 4 -14
26 -13 94 2 109 14 14 59 5 76 -16z"/>
<path d="M5286 2818 c-24 -33 -23 -369 0 -392 41 -42 84 -7 84 69 0 38 4 54
15 59 26 9 40 -3 73 -64 46 -84 83 -107 116 -74 24 23 19 47 -19 97 -19 25
-35 53 -35 61 0 8 14 30 30 48 39 43 44 111 11 158 -31 44 -77 60 -173 60 -78
0 -88 -2 -102 -22z m175 -68 c12 -7 19 -21 19 -40 0 -36 -36 -63 -77 -58 -25
3 -28 8 -31 41 -2 21 2 45 9 53 13 16 52 18 80 4z"/>
<path d="M5668 2829 c-16 -9 -18 -29 -18 -195 0 -109 4 -193 10 -205 12 -22
59 -26 78 -7 8 8 12 68 12 203 0 135 -4 195 -12 203 -15 15 -47 15 -70 1z"/>
</g>
</svg>
