<?xml version="1.0" standalone="no"?>
<!DOCTYPE svg PUBLIC "-//W3C//DTD SVG 20010904//EN"
 "http://www.w3.org/TR/2001/REC-SVG-20010904/DTD/svg10.dtd">
<svg version="1.0" xmlns="http://www.w3.org/2000/svg"
 width="1024.000000pt" height="1046.000000pt" viewBox="0 0 1024.000000 1046.000000"
 preserveAspectRatio="xMidYMid meet">

<g transform="translate(0.000000,1046.000000) scale(0.100000,-0.100000)"
fill="#000000" stroke="none">
<path d="M6245 7480 c-170 -10 -418 -23 -550 -29 -132 -7 -301 -16 -375 -22
-74 -5 -218 -14 -320 -20 -102 -5 -248 -14 -325 -19 -77 -5 -237 -14 -355 -19
-118 -6 -280 -14 -360 -20 -80 -5 -237 -15 -350 -21 -385 -20 -645 -41 -700
-57 -87 -24 -130 -50 -130 -77 0 -27 -14 -41 -51 -50 -19 -4 -34 -20 -50 -53
-20 -41 -24 -63 -24 -158 0 -60 6 -159 12 -220 21 -180 43 -384 53 -475 5 -47
16 -152 25 -235 9 -82 20 -188 25 -235 5 -47 18 -157 30 -245 23 -169 36 -490
21 -500 -5 -3 -15 8 -23 25 -13 31 -31 39 -44 19 -3 -6 -15 -9 -25 -6 -22 6
-49 -31 -49 -67 0 -13 -7 -31 -15 -39 -8 -8 -11 -17 -8 -21 4 -3 48 -6 98 -6
70 0 96 -4 105 -15 15 -18 24 -100 40 -340 7 -99 20 -240 30 -312 23 -168 48
-218 139 -280 114 -78 183 -88 476 -65 88 7 232 17 319 22 88 5 171 12 185 14
14 3 103 10 196 16 187 11 376 25 560 41 66 6 149 13 185 15 36 2 157 11 270
19 113 8 282 20 375 26 222 13 515 35 640 48 55 6 174 15 265 21 91 6 226 15
300 20 340 23 411 39 487 107 75 68 138 241 113 311 -6 18 -15 66 -20 105 -22
196 -47 355 -70 447 -5 20 -14 67 -19 105 -10 70 -39 258 -67 435 -8 52 -19
127 -24 165 -11 77 -33 210 -48 295 -6 30 -15 84 -21 120 -6 36 -18 108 -27
160 -8 52 -19 122 -24 155 -4 33 -18 121 -30 195 -12 74 -32 207 -45 295 -31
220 -53 281 -127 351 -51 49 -74 62 -143 80 -62 17 -139 16 -530 -6z m390 -60
c-3 -6 -44 -9 -93 -8 -77 1 -81 2 -37 8 81 11 137 11 130 0z m93 3 c-10 -2
-28 -2 -40 0 -13 2 -5 4 17 4 22 1 32 -1 23 -4z m-504 -22 c20 -8 -251 -24
-669 -41 -137 -6 -299 -15 -360 -20 -60 -5 -159 -10 -220 -11 -60 -1 -135 -5
-165 -10 -30 -5 -189 -16 -355 -24 -165 -8 -349 -20 -410 -25 -60 -6 -193 -9
-295 -8 l-185 1 120 8 c66 4 167 12 225 18 58 5 157 10 221 11 64 0 140 4 170
10 30 5 205 17 389 26 184 9 405 20 490 25 85 4 290 15 455 23 165 8 314 17
330 19 55 7 240 6 259 -2z m-2659 -151 c4 -6 -22 -10 -72 -10 -143 0 -506 -31
-551 -47 -27 -10 -61 -36 -92 -70 -55 -60 -55 -62 -52 -208 l2 -80 -15 45
c-17 51 -20 156 -5 165 6 3 10 17 10 31 0 32 15 61 49 90 53 47 100 61 231 69
69 4 168 10 220 14 151 12 268 12 275 1z m3076 -122 c6 -12 20 -69 30 -127 10
-58 28 -160 39 -226 12 -66 26 -149 31 -185 17 -122 43 -287 119 -755 42 -256
76 -490 110 -750 36 -275 40 -299 50 -345 13 -62 12 -93 -3 -113 -13 -18 -92
-28 -382 -47 -159 -10 -476 -36 -605 -50 -52 -5 -158 -12 -235 -15 -187 -7
-717 -41 -935 -59 -96 -8 -242 -19 -325 -25 -82 -6 -215 -15 -295 -21 -772
-55 -778 -55 -795 -13 -7 17 -21 126 -45 338 -5 50 -17 135 -25 190 -19 131
-41 299 -65 515 -11 96 -22 184 -25 196 -2 12 -12 88 -20 170 -14 136 -70 623
-94 819 -29 234 -36 316 -29 327 5 9 58 15 180 20 234 9 530 26 559 32 13 3
116 10 229 16 442 22 782 40 945 50 94 6 278 17 410 25 132 8 344 20 470 26
127 7 284 15 350 19 66 4 170 7 232 8 106 2 113 1 124 -20z m-3816 -452 c5
-56 4 -76 -4 -72 -6 4 -11 39 -11 83 0 42 2 74 4 72 2 -2 7 -39 11 -83z m24
-253 l-2 -68 -10 52 c-9 47 -6 83 8 83 3 0 4 -30 4 -67z m35 -338 l4 -90 -9
70 c-5 39 -11 106 -13 150 l-4 80 10 -60 c5 -33 11 -100 12 -150z m4223 103
c-2 -13 -4 -5 -4 17 -1 22 1 32 4 23 2 -10 2 -28 0 -40z m-4196 -281 c1 -42
-1 -80 -4 -84 -4 -3 -7 33 -7 82 0 108 8 109 11 2z m23 -232 c5 -63 4 -86 -3
-75 -10 13 -16 179 -7 169 2 -2 7 -44 10 -94z m63 -602 c-2 -21 -4 -6 -4 32 0
39 2 55 4 38 2 -18 2 -50 0 -70z m20 -205 c-2 -18 -4 -4 -4 32 0 36 2 50 4 33
2 -18 2 -48 0 -65z m40 -320 c-2 -18 -4 -4 -4 32 0 36 2 50 4 33 2 -18 2 -48
0 -65z"/>
<path d="M5920 6933 c-198 -15 -224 -23 -264 -76 -18 -24 -21 -41 -18 -105 1
-42 6 -99 12 -127 5 -27 19 -115 31 -195 22 -141 24 -146 60 -185 36 -38 40
-40 111 -43 94 -5 537 25 577 39 40 14 81 78 81 128 0 22 -9 104 -20 183 -44
319 -48 331 -111 373 -36 23 -46 25 -156 24 -65 -1 -201 -8 -303 -16z m433
-48 c35 -25 37 -28 36 -78 -1 -29 -4 -40 -6 -25 -2 15 -16 41 -31 58 -30 34
-60 37 -192 19 -41 -5 -149 -12 -240 -14 l-165 -3 -27 -33 c-16 -18 -28 -42
-29 -54 -1 -11 -5 -4 -11 17 -11 41 5 77 45 95 23 12 352 39 497 41 76 2 89
-1 123 -23z m-413 -85 c0 -5 -5 -10 -11 -10 -5 0 -7 5 -4 10 3 6 8 10 11 10 2
0 4 -4 4 -10z m290 -50 c31 -9 37 -16 49 -57 16 -57 26 -233 14 -250 -9 -13
-341 -38 -373 -28 -28 9 -38 32 -55 127 -22 123 -20 162 8 181 38 25 295 44
357 27z"/>
<path d="M6023 6643 c-12 -5 -6 -122 8 -137 4 -5 23 3 43 20 19 16 45 37 58
46 23 17 23 18 4 33 -11 8 -28 15 -38 15 -10 0 -29 6 -41 14 -12 7 -27 12 -34
9z"/>
<path d="M4905 6879 c-250 -13 -261 -15 -300 -55 -28 -28 -35 -43 -37 -77 -2
-64 2 -115 17 -202 8 -44 21 -133 29 -197 17 -129 28 -153 86 -192 45 -30 66
-31 245 -16 66 5 182 14 258 19 151 10 171 17 206 75 l22 35 -20 163 c-12 90
-25 204 -30 255 -11 103 -24 131 -85 174 -37 27 -44 29 -135 28 -53 -1 -168
-6 -256 -10z m361 -34 c40 -16 68 -69 78 -145 6 -45 36 -383 36 -407 0 -7 -13
-26 -30 -43 -28 -29 -33 -30 -127 -32 -239 -5 -460 -15 -478 -22 -16 -6 -50
30 -65 69 -18 48 -70 373 -70 440 0 110 42 134 238 136 53 1 138 4 187 8 148
13 194 12 231 -4z"/>
<path d="M5094 6787 c-108 -42 -154 -63 -152 -72 0 -5 -2 -17 -5 -25 -14 -32
-35 -143 -31 -155 14 -36 -74 -73 -103 -44 -13 13 62 172 96 203 33 30 25 38
-14 14 -22 -15 -45 -45 -65 -84 -16 -34 -30 -64 -30 -68 0 -3 -15 -29 -33 -58
-61 -97 -71 -126 -58 -169 9 -29 22 -45 55 -64 51 -30 64 -27 116 29 l38 41
64 -32 c77 -40 151 -57 178 -43 10 5 27 10 37 10 25 0 67 45 87 94 33 81 12
164 -53 202 -35 21 -39 39 -15 66 10 10 19 39 22 66 4 46 3 49 -35 75 -43 30
-54 31 -99 14z m90 -50 c17 -12 17 -18 6 -51 -17 -51 -36 -56 -69 -16 -33 40
-55 36 -76 -14 -15 -36 -50 -55 -67 -38 -13 13 7 96 26 111 10 9 35 12 137 19
14 1 33 -4 43 -11z m-80 -113 c22 -8 8 -34 -19 -34 -25 0 -41 26 -22 34 17 7
24 7 41 0z m9 -78 c78 -1 79 -1 113 -38 41 -45 43 -70 9 -104 -42 -42 -62 -18
-64 78 -1 58 -15 68 -49 36 -37 -34 -54 -39 -96 -26 -46 14 -70 40 -61 67 6
20 7 20 38 4 22 -11 57 -17 110 -17z m-296 -138 c35 -39 36 -48 12 -74 -28
-30 -40 -30 -69 1 l-23 25 19 35 c22 41 33 43 61 13z"/>
<path d="M3795 6819 c-245 -14 -288 -26 -321 -91 -18 -35 -17 -51 12 -273 8
-66 19 -154 23 -196 9 -84 30 -130 74 -163 26 -19 40 -21 170 -19 78 2 220 9
315 16 186 15 201 20 246 81 17 23 21 41 19 99 -1 40 -6 97 -12 127 -5 30 -15
114 -22 185 -13 142 -26 177 -82 217 -29 21 -44 23 -157 24 -69 1 -188 -2
-265 -7z m415 -51 c33 -36 36 -46 50 -188 5 -58 18 -150 27 -205 19 -113 15
-140 -25 -183 -25 -27 -36 -31 -108 -37 -43 -3 -115 -11 -159 -16 -44 -4 -147
-9 -228 -10 -140 -1 -149 0 -172 21 -31 29 -40 56 -59 180 -29 188 -41 356
-28 384 17 39 56 58 125 63 34 2 96 8 137 12 41 5 151 9 243 10 l168 1 29 -32z"/>
<path d="M4020 6695 c-27 -43 -47 -55 -97 -56 -34 0 -35 -1 -15 -10 13 -5 28
-6 34 -3 5 3 21 -5 35 -17 24 -24 25 -24 39 -4 8 11 13 29 10 41 -5 19 16 60
38 76 7 5 4 8 -6 8 -9 0 -26 -16 -38 -35z"/>
<path d="M3650 6680 c-8 -5 -12 -12 -9 -15 4 -3 12 1 19 10 14 17 11 19 -10 5z"/>
<path d="M4120 6680 c0 -5 5 -10 11 -10 5 0 7 5 4 10 -3 6 -8 10 -11 10 -2 0
-4 -4 -4 -10z"/>
<path d="M3720 6641 c5 -11 10 -29 10 -40 0 -21 15 -26 44 -15 19 7 21 34 3
34 -8 0 -24 9 -37 20 -29 25 -33 25 -20 1z"/>
<path d="M3620 6623 c0 -11 4 -23 9 -28 5 -6 11 -19 14 -30 3 -11 5 0 4 24 -2
43 -27 74 -27 34z"/>
<path d="M4075 6620 c-4 -6 3 -27 15 -47 12 -20 24 -58 27 -85 5 -41 2 -54
-21 -88 -32 -49 -77 -74 -117 -65 -30 7 -36 18 -41 80 -4 41 -32 45 -52 6 -23
-43 -21 -81 3 -81 31 0 51 -11 51 -27 0 -12 -8 -14 -32 -9 -18 3 -54 7 -79 10
-48 4 -117 34 -138 60 -18 21 -25 89 -13 112 7 14 7 24 -3 37 -18 24 -22 21
-17 -12 3 -20 -2 -35 -17 -50 l-21 -21 25 -50 c31 -61 56 -85 122 -116 53 -26
61 -47 22 -57 -15 -4 -20 -12 -17 -29 3 -20 8 -23 48 -21 25 1 99 3 164 5 134
3 143 9 102 63 -14 18 -26 40 -26 47 1 7 19 31 41 53 22 22 50 57 61 79 l20
38 -36 79 c-20 43 -36 83 -36 89 0 13 -27 13 -35 0z m-40 -360 c12 -20 -17
-40 -57 -40 -27 0 -38 4 -35 13 2 6 15 11 28 11 13 -1 28 5 32 12 10 17 23 18
32 4z m-140 -46 c-32 -13 -45 -3 -25 21 10 12 17 12 34 3 21 -11 20 -12 -9
-24z"/>
<path d="M3986 6524 c-10 -27 -7 -52 10 -68 30 -30 52 -9 40 39 -8 32 -41 51
-50 29z"/>
<path d="M3754 6506 c-8 -20 23 -89 38 -84 18 6 23 79 6 89 -20 13 -38 11 -44
-5z"/>
<path d="M6175 6043 c-22 -2 -103 -7 -181 -12 -221 -13 -245 -40 -214 -249 5
-37 17 -130 25 -207 18 -161 32 -197 92 -239 l43 -30 222 13 c325 19 369 24
401 45 60 41 68 95 42 283 -8 59 -20 142 -26 183 -19 141 -31 165 -103 207
-20 12 -200 15 -301 6z m289 -46 c25 -24 36 -56 36 -102 0 -39 -3 -46 -16 -41
-9 3 -20 6 -25 6 -5 0 -9 5 -9 10 0 6 7 10 15 10 20 0 19 35 -2 59 -13 16 -21
18 -36 10 -18 -10 -18 -11 0 -24 14 -10 15 -16 6 -26 -9 -9 -18 -7 -40 8 -53
36 -131 63 -181 63 -31 0 -19 -17 19 -25 16 -4 49 -21 72 -38 23 -18 61 -45
84 -61 64 -43 71 -94 12 -81 -44 10 -27 -19 22 -39 43 -17 47 -30 28 -87 -16
-48 -100 -158 -121 -159 -10 0 -22 -9 -28 -20 -7 -13 -21 -20 -40 -20 -32 0
-47 15 -32 33 12 16 0 116 -18 145 -8 12 -23 22 -32 22 -15 0 -16 -4 -8 -26 6
-14 10 -43 9 -63 -1 -20 2 -46 6 -58 6 -19 4 -23 -15 -23 -29 0 -109 47 -143
85 -15 16 -36 48 -48 70 -11 22 -27 51 -34 64 -25 45 6 153 54 189 15 10 52
31 84 46 63 30 76 52 25 42 -18 -3 -79 -14 -135 -24 -56 -10 -105 -21 -109
-25 -4 -3 -6 -44 -5 -91 1 -46 -2 -87 -7 -90 -14 -8 -32 202 -20 230 10 22 17
24 97 25 47 1 131 5 186 9 178 12 335 11 349 -3z"/>
<path d="M6266 5582 c-13 -22 51 -55 77 -40 23 12 21 28 -2 28 -11 0 -23 5
-26 10 -7 12 -42 13 -49 2z"/>
<path d="M5185 5989 c-60 -4 -171 -10 -245 -14 -154 -7 -200 -21 -230 -70 -24
-40 -26 -116 -5 -260 8 -55 15 -127 15 -160 1 -33 9 -89 18 -125 15 -56 23
-69 62 -99 l45 -34 145 7 c80 3 218 12 307 20 177 15 207 26 239 89 18 33 17
36 -10 257 -34 273 -44 317 -86 355 -24 22 -88 45 -120 43 -14 -1 -74 -5 -135
-9z m202 -43 c16 -8 34 -25 41 -38 12 -25 35 -248 26 -257 -10 -10 -44 43 -44
69 -1 23 -2 24 -14 8 -7 -10 -17 -18 -22 -18 -16 0 -65 -58 -54 -65 5 -3 10
-13 10 -21 0 -12 -8 -10 -42 7 l-42 21 30 27 c16 14 41 35 55 46 18 14 29 35
34 63 6 40 5 45 -33 82 -43 44 -88 53 -116 24 -23 -23 -20 -27 17 -20 26 5 40
1 60 -15 42 -32 35 -62 -27 -127 -56 -59 -58 -65 -24 -107 4 -5 24 -30 43 -53
41 -52 44 -84 11 -117 -22 -22 -31 -24 -73 -19 -26 3 -60 15 -75 25 -38 27
-45 24 -68 -21 -27 -53 -60 -74 -103 -66 -69 13 -105 92 -73 155 9 17 26 60
36 94 11 35 29 72 40 84 25 27 84 39 122 25 25 -9 30 -7 47 16 21 30 36 72 26
72 -4 0 -16 -11 -26 -24 -17 -22 -25 -24 -76 -19 -49 4 -66 1 -104 -20 -29
-16 -50 -22 -56 -16 -6 6 -25 1 -51 -13 -34 -18 -44 -20 -51 -10 -10 16 -21
-64 -21 -150 0 -31 -4 -60 -10 -63 -6 -4 -10 11 -10 38 0 24 -9 86 -20 138
-12 52 -22 118 -23 148 -1 47 2 56 26 77 19 17 41 24 70 25 23 0 103 6 177 12
219 19 355 20 387 3z m-474 -252 c-4 -10 -9 -12 -15 -6 -12 12 -1 35 12 27 5
-3 6 -13 3 -21z m454 -40 c-3 -3 -12 -4 -19 -1 -8 3 -5 6 6 6 11 1 17 -2 13
-5z"/>
<path d="M4990 5543 c0 -16 55 -63 73 -63 4 0 7 9 7 19 0 11 -14 28 -34 40
-41 26 -46 26 -46 4z"/>
<path d="M4020 5918 c-52 -5 -150 -10 -217 -13 -85 -3 -131 -9 -153 -20 -58
-30 -91 -116 -71 -184 6 -19 20 -118 31 -220 23 -202 40 -257 93 -295 24 -18
43 -21 125 -20 142 1 471 23 513 34 22 6 52 26 73 50 42 46 43 61 21 215 -8
55 -15 127 -15 161 0 137 -36 230 -107 279 -33 22 -47 25 -118 23 -44 -1 -123
-5 -175 -10z m277 -28 c18 -10 38 -32 46 -47 31 -60 62 -462 38 -477 -7 -5
-14 -6 -16 -4 -5 5 -24 131 -35 238 -8 84 -25 148 -36 137 -3 -3 0 -45 6 -94
7 -48 14 -104 17 -123 2 -19 9 -46 16 -59 10 -19 8 -25 -8 -37 -10 -8 -37 -14
-60 -14 -41 0 -107 -16 -181 -43 -37 -14 -48 -14 -108 0 -51 11 -80 13 -124 5
-31 -5 -62 -7 -70 -4 -21 8 -31 43 -43 164 -14 140 -15 158 -4 182 6 14 5 18
-6 14 -7 -2 -16 -15 -20 -29 -11 -38 -10 -305 1 -333 7 -20 6 -26 -5 -26 -17
0 -19 8 -44 135 -27 140 -45 297 -37 328 11 45 54 66 157 77 52 5 130 14 174
18 44 5 132 10 195 10 98 2 120 -1 147 -18z m3 -550 c-36 -12 -80 -12 -80 0 0
6 24 10 53 9 41 -1 47 -3 27 -9z m-93 -12 c-2 -7 -14 -12 -26 -11 -11 2 -21
-1 -21 -6 0 -12 -35 -20 -50 -11 -8 5 -5 12 11 24 28 19 93 22 86 4z m-241
-27 c5 -5 18 -11 29 -14 13 -3 10 -5 -11 -6 -18 0 -47 6 -65 14 l-34 14 36 1
c19 0 39 -4 45 -9z"/>
<path d="M4032 5431 c4 -13 18 -16 19 -4 0 4 -5 9 -11 12 -7 2 -11 -2 -8 -8z"/>
<path d="M6210 5144 c-30 -8 -92 -18 -138 -23 -65 -6 -88 -13 -107 -31 -29
-27 -30 -47 -15 -195 18 -173 27 -208 57 -234 26 -23 32 -23 123 -17 206 13
436 34 452 41 27 11 41 60 35 122 -6 64 -39 223 -56 265 -17 45 -56 63 -131
61 -36 -1 -87 5 -114 13 -27 8 -50 14 -50 13 -1 0 -26 -7 -56 -15z m89 -35
c19 -7 31 -18 31 -29 0 -20 -11 -25 -82 -35 -34 -4 -49 -11 -53 -25 -3 -10
-15 -22 -25 -25 -11 -3 -28 -18 -39 -34 -18 -25 -18 -31 -6 -91 11 -52 20 -71
49 -98 20 -18 36 -37 36 -42 0 -6 -26 -10 -57 -10 -32 0 -68 -3 -80 -6 -17 -5
-25 -1 -32 17 -10 26 -26 121 -36 207 l-6 52 51 0 c30 0 68 8 95 21 39 18 44
25 47 57 3 37 4 38 69 51 3 0 20 -4 38 -10z m-179 -49 c-15 -9 -121 -22 -128
-16 -2 3 -2 12 1 21 4 10 20 15 49 16 24 0 52 4 63 8 23 9 36 -16 15 -29z
m380 20 c32 -23 38 -52 46 -232 l5 -108 -68 1 c-56 0 -64 2 -45 11 12 6 22 18
22 26 0 11 -3 12 -13 3 -19 -15 -28 -2 -16 22 18 33 6 138 -20 175 l-22 32 55
0 c61 0 72 8 52 35 -10 14 -26 19 -65 18 -46 -1 -50 1 -40 18 13 26 72 25 109
-1z"/>
<path d="M6050 4923 c1 -32 20 -155 27 -165 3 -6 10 -3 16 7 9 17 11 17 22 1
7 -9 16 -13 19 -8 3 5 -6 22 -19 38 -15 17 -30 53 -36 87 -11 53 -29 79 -29
40z"/>
<path d="M6488 4786 c-3 -15 -1 -29 3 -32 14 -8 22 23 11 42 -8 14 -10 13 -14
-10z"/>
<path d="M5144 5080 c-196 -8 -221 -13 -257 -54 -20 -23 -20 -36 3 -266 12
-123 24 -164 55 -190 30 -25 502 -8 555 20 9 5 25 21 34 36 20 29 19 58 -7
224 -29 181 -39 216 -66 224 -38 11 -138 13 -317 6z m308 -37 c10 -9 18 -30
18 -46 0 -17 4 -56 10 -86 33 -197 30 -276 -13 -286 -31 -7 -339 -25 -423 -25
-91 0 -99 9 -109 115 -3 44 -13 105 -21 136 -18 71 -19 175 -1 186 11 7 195
16 431 21 71 2 93 -1 108 -15z"/>
<path d="M5155 4971 c-3 -10 -2 -26 1 -35 7 -19 50 -39 65 -30 12 7 11 41 -1
65 -14 25 -57 25 -65 0z"/>
<path d="M5322 4981 c-8 -4 -12 -19 -10 -32 4 -29 45 -34 61 -7 19 30 -19 60
-51 39z"/>
<path d="M5036 4957 c-14 -10 -17 -21 -12 -41 6 -23 10 -25 34 -20 37 9 44 17
40 45 -4 28 -34 36 -62 16z"/>
<path d="M5351 4846 c-8 -10 -8 -16 2 -24 17 -14 42 2 34 22 -8 20 -21 20 -36
2z"/>
<path d="M5203 4843 c-24 -5 -32 -33 -10 -33 6 0 23 -3 35 -7 20 -5 23 -3 20
17 -3 25 -11 29 -45 23z"/>
<path d="M5050 4825 c-10 -12 -10 -19 -2 -27 16 -16 42 -2 42 22 0 24 -22 26
-40 5z"/>
<path d="M5361 4732 c-12 -23 1 -45 25 -40 23 4 31 37 12 49 -19 13 -26 11
-37 -9z"/>
<path d="M5223 4724 c-3 -8 -1 -20 6 -27 8 -8 11 -4 11 16 0 30 -7 35 -17 11z"/>
<path d="M5035 4720 c-14 -22 6 -50 36 -50 33 0 38 19 11 43 -21 19 -38 22
-47 7z"/>
<path d="M4026 5024 c-34 -20 -82 -39 -112 -44 -57 -9 -99 -32 -115 -62 -10
-19 -8 -50 21 -290 17 -143 30 -150 256 -137 381 21 384 22 384 157 0 47 -4
113 -10 146 -5 34 -12 81 -15 106 -4 31 -16 57 -38 82 -32 38 -34 38 -102 36
-55 -1 -79 3 -112 20 -58 30 -89 28 -157 -14z m142 -18 c46 -19 69 -22 123
-19 63 5 66 4 84 -23 11 -17 21 -58 26 -104 4 -41 12 -119 19 -173 9 -71 9
-101 1 -111 -7 -8 -48 -16 -113 -20 -57 -4 -119 -9 -138 -11 -75 -6 -256 -6
-272 0 -9 4 -22 21 -27 38 -21 68 -42 215 -39 277 l3 65 40 8 c22 5 53 8 69 8
20 0 45 12 75 37 72 59 73 60 149 28z"/>
<path d="M4040 4911 c-19 -11 -46 -34 -60 -53 -21 -28 -25 -44 -25 -103 0
-116 49 -173 157 -182 78 -8 128 15 168 75 54 82 34 185 -48 248 -39 30 -52
34 -101 34 -35 -1 -69 -8 -91 -19z m73 -38 c-7 -2 -19 -2 -25 0 -7 3 -2 5 12
5 14 0 19 -2 13 -5z m-53 -21 c0 -5 -9 -17 -21 -28 -21 -19 -21 -35 -3 -104 6
-24 6 -24 -11 -8 -22 20 -25 86 -6 122 13 24 41 36 41 18z"/>
<path d="M4305 4920 c-10 -16 16 -43 28 -31 11 11 2 41 -12 41 -5 0 -13 -5
-16 -10z"/>
<path d="M3894 4869 c-11 -18 13 -34 31 -19 8 7 15 16 15 21 0 13 -38 11 -46
-2z"/>
<path d="M6617 4113 c18 -2 50 -2 70 0 21 2 7 4 -32 4 -38 0 -55 -2 -38 -4z"/>
<path d="M2985 3980 c3 -5 8 -10 11 -10 2 0 4 5 4 10 0 6 -5 10 -11 10 -5 0
-7 -4 -4 -10z"/>
<path d="M4311 3268 c-14 -37 4 -58 48 -58 38 0 39 -2 45 -37 2 -21 5 -87 4
-146 0 -115 8 -137 47 -137 39 0 44 20 47 171 l3 144 42 3 c50 4 71 29 53 62
-10 18 -21 20 -146 20 -130 0 -135 -1 -143 -22z"/>
<path d="M4708 3273 c-13 -16 -113 -285 -125 -340 -3 -15 1 -25 16 -32 27 -15
56 0 76 38 12 24 22 30 58 32 63 6 70 3 92 -39 22 -42 62 -54 85 -27 11 13 11
25 0 68 -7 29 -16 57 -20 62 -4 6 -25 60 -45 120 -21 61 -43 116 -48 123 -14
18 -72 15 -89 -5z m60 -138 c26 -56 4 -109 -33 -81 -15 10 -17 21 -11 59 8 52
26 61 44 22z"/>
<path d="M4978 3279 c-16 -9 -18 -29 -18 -188 0 -145 3 -181 15 -191 10 -8 45
-11 110 -8 91 3 96 4 126 35 41 41 47 108 12 145 -27 28 -28 45 -8 72 32 42
11 102 -45 131 -33 17 -165 20 -192 4z m155 -90 c7 -27 -27 -61 -56 -57 -14 2
-23 11 -25 26 -6 39 5 52 42 52 26 0 35 -5 39 -21z m-10 -144 c40 -30 -8 -91
-57 -72 -16 6 -23 66 -9 80 11 11 47 7 66 -8z"/>
<path d="M5302 3278 c-19 -19 -17 -352 2 -367 8 -7 54 -15 103 -18 97 -6 118
3 111 49 -3 20 -9 23 -58 26 -30 2 -60 8 -67 14 -9 8 -13 48 -13 147 0 144 -5
161 -45 161 -12 0 -26 -5 -33 -12z"/>
<path d="M5577 3272 c-14 -16 -17 -44 -17 -178 0 -206 -1 -204 116 -204 91 0
124 10 124 38 0 30 -22 42 -75 42 -53 0 -75 12 -75 41 0 29 29 49 69 49 23 0
44 6 52 16 21 26 -2 48 -62 60 -51 9 -54 12 -54 40 0 28 1 29 58 32 48 3 60 7
73 28 28 42 6 54 -101 54 -76 0 -95 -3 -108 -18z"/>
<path d="M5846 3277 c-14 -10 -17 -21 -12 -40 5 -22 12 -26 49 -29 l42 -3 5
-147 c6 -162 11 -178 57 -162 l28 9 6 150 c3 83 7 151 7 152 1 1 21 3 45 5 41
3 42 4 42 38 l0 35 -125 3 c-94 2 -130 -1 -144 -11z"/>
</g>
</svg>
